<svg xmlns="http://www.w3.org/2000/svg" xmlns:xlink="http://www.w3.org/1999/xlink" version="1.1" x="0px" y="0px" viewBox="0 0 91 113.75" enable-background="new 0 0 91 91" xml:space="preserve"><g><path d="M48.532,32.09l16.536,16.532c0.082,0.081,0.188,0.123,0.297,0.123c0.106,0,0.216-0.042,0.298-0.123l9.361-9.363   c0.128-0.127,0.158-0.324,0.078-0.486c-3.511-7.002-10.646-14.685-13.549-17.663c-0.078-0.081-0.187-0.127-0.298-0.127   c-0.08-0.037-0.222,0.045-0.301,0.123l-4.358,4.358c-1.438,1.438-3.033,2.167-4.834,2.167h-0.002   c-2.569-0.099-4.253-1.973-4.458-2.21l-1.061-1.05c-1.128-1.128-3.12-1.13-4.247-0.002l-7.519,7.516   c-0.564,0.562-0.874,1.317-0.874,2.123c0,0.808,0.31,1.563,0.874,2.127l0.837,0.836c1.085,1.083,3.175,1.077,4.243,0.008   l6.803-6.505c0.489-0.468,1.316-0.447,1.781,0.041c0.292,0.301,0.394,0.729,0.283,1.175C48.387,31.833,48.428,31.985,48.532,32.09z   "/><path d="M28.097,61.771c0.326,0.326,0.798,0.513,1.29,0.513c0.49,0,0.96-0.185,1.3-0.517l8.14-8.14   c0.345-0.345,0.535-0.806,0.535-1.299c0-0.492-0.19-0.951-0.535-1.298l-0.542-0.539c-0.693-0.693-1.907-0.689-2.59-0.002   l-8.144,8.142c-0.345,0.345-0.535,0.806-0.535,1.296c0,0.489,0.19,0.95,0.533,1.295L28.097,61.771z"/><path d="M34.042,21.159c-0.107-0.104-0.265-0.147-0.405-0.108c-2.789,0.734-12.282,4.196-17.337,17.884   c-0.057,0.154-0.021,0.326,0.096,0.443l8.206,8.202c0.164,0.164,0.431,0.164,0.595,0l3.792-3.792   c0.779-0.779,1.901-1.226,3.078-1.226c1.178,0,2.299,0.445,3.079,1.222l0.543,0.547c0.732,0.732,1.173,1.726,1.241,2.792   c0.014,0.209,0.181,0.377,0.39,0.391c1.079,0.079,2.055,0.503,2.748,1.196l0.539,0.539c0.822,0.821,1.273,1.916,1.273,3.08   c0,0.583-0.11,1.145-0.328,1.67c-0.042,0.104-0.042,0.22,0,0.324c0.043,0.103,0.127,0.185,0.23,0.228   c0.535,0.215,0.999,0.519,1.378,0.896l0.545,0.55c0.818,0.813,1.268,1.904,1.268,3.071c0,0.582-0.111,1.145-0.329,1.672   c-0.043,0.103-0.043,0.219,0,0.323c0.045,0.104,0.127,0.185,0.232,0.226c0.533,0.216,0.997,0.517,1.38,0.898l0.539,0.538   c1.695,1.699,1.698,4.464-0.024,6.19c-0.078,0.078-0.123,0.186-0.123,0.298c0,0.11,0.045,0.217,0.123,0.297l3.279,3.275   c0.329,0.332,0.804,0.522,1.296,0.522c0.494,0,0.966-0.19,1.294-0.521l0.548-0.545c0.569-0.573,0.697-1.467,0.308-2.177   c-0.025-0.045-4.005-4.007-4.005-4.007c-0.488-0.488-0.49-1.284-0.007-1.776c0.47-0.475,1.292-0.486,1.776-0.016   c0,0,4.02,3.936,4.064,3.959c0.679,0.376,1.632,0.242,2.187-0.307l0.536-0.54c0.347-0.347,0.538-0.808,0.538-1.298   c0-0.447-0.172-0.881-0.507-1.229c-0.018-0.035-4.029-4.069-4.029-4.069c-0.238-0.238-0.369-0.554-0.369-0.891   c0-0.336,0.131-0.651,0.369-0.89c0.476-0.479,1.304-0.48,1.782,0l3.98,3.979l0.071,0.08c0.697,0.642,1.855,0.625,2.529-0.045   l0.537-0.537c0.345-0.343,0.534-0.804,0.539-1.301c0-0.453-0.175-0.892-0.492-1.238c-0.008-0.008-0.021-0.021-0.035-0.033   c-0.02-0.03-0.047-0.063-0.063-0.082l-4.715-4.715c-0.49-0.492-0.49-1.29,0-1.782c0.477-0.476,1.307-0.478,1.782,0l4.743,4.741   c0.017,0.025,0.054,0.066,0.075,0.087c0.699,0.642,1.859,0.626,2.535-0.046l0.54-0.539c0.347-0.347,0.535-0.808,0.535-1.3   c0-0.491-0.19-0.95-0.537-1.297L46.896,34.014c-0.16-0.162-0.423-0.164-0.587-0.006l-4.989,4.772   c-1.021,1.023-2.397,1.588-3.878,1.588c-1.48,0-2.867-0.574-3.909-1.615l-0.836-0.834c-1.04-1.042-1.614-2.43-1.614-3.911   c0-1.48,0.572-2.867,1.614-3.902l4.848-4.848c0.078-0.08,0.124-0.187,0.124-0.297c0-0.113-0.045-0.22-0.124-0.297L34.042,21.159z"/><path d="M34.44,47.409c0-0.494-0.191-0.953-0.533-1.294l-0.546-0.549c-0.685-0.681-1.896-0.685-2.592,0.004l-8.138,8.142   c-0.344,0.343-0.535,0.804-0.535,1.296c0,0.494,0.191,0.954,0.535,1.299l0.542,0.539c0.33,0.329,0.804,0.519,1.298,0.519   c0.493,0,0.966-0.189,1.298-0.519l8.136-8.14C34.249,48.363,34.44,47.901,34.44,47.409z"/><path d="M37.928,71.601c0.333,0.331,0.804,0.519,1.298,0.519c0.492,0,0.964-0.188,1.296-0.519l4.495-4.495   c0.714-0.714,0.712-1.879-0.002-2.598l-0.539-0.536c-0.697-0.692-1.912-0.69-2.595-0.002l-4.497,4.495   c-0.714,0.716-0.714,1.881,0.002,2.597L37.928,71.601z"/><path d="M33.008,66.681c0.333,0.335,0.804,0.525,1.296,0.525c0.494,0,0.966-0.19,1.3-0.523l6.314-6.318   c0.345-0.342,0.535-0.804,0.535-1.296c0-0.489-0.188-0.949-0.531-1.292l-0.548-0.55c-0.685-0.687-1.901-0.683-2.588,0.002   l-6.29,6.297c-0.019,0.014-0.035,0.029-0.049,0.047c-0.333,0.343-0.515,0.794-0.515,1.271c0,0.495,0.191,0.957,0.535,1.299   L33.008,66.681z"/><path d="M4.685,58.25c0.181,0,0.365-0.024,0.548-0.074c1.12-0.301,1.782-1.451,1.482-2.573   C2.068,38.318,9.158,20.331,24.356,10.844c15.795-9.86,35.827-7.438,48.872,4.651l-3.177,1.983   c-0.693,0.432-1.07,1.226-0.972,2.039c0.101,0.81,0.662,1.488,1.439,1.74l10.735,3.464c0.212,0.067,0.429,0.101,0.646,0.101   c0.402,0,0.802-0.115,1.146-0.341c0.532-0.344,0.876-0.913,0.941-1.542l1.131-10.872c0.082-0.797-0.298-1.573-0.977-1.997   c-0.681-0.425-1.545-0.425-2.225,0l-5.011,3.127C62.535-0.823,39.903-3.813,22.133,7.282C5.356,17.753-2.47,37.611,2.659,56.694   C2.912,57.632,3.758,58.25,4.685,58.25z"/><path d="M86.138,31.649c-1.117,0.313-1.768,1.472-1.456,2.59c4.808,17.148-2.403,35.721-17.53,45.167   c-15.795,9.858-35.829,7.432-48.874-4.66l3.671-2.292c0.705-0.439,1.085-1.255,0.966-2.078c-0.117-0.824-0.71-1.499-1.509-1.724   l-11.234-3.159c-0.597-0.166-1.241-0.062-1.753,0.287c-0.513,0.351-0.845,0.91-0.905,1.53L6.451,78.145   c-0.078,0.796,0.301,1.567,0.982,1.989c0.339,0.21,0.724,0.316,1.108,0.316c0.385,0,0.771-0.106,1.111-0.32l4.955-3.093   c8.445,8.24,19.733,12.687,31.225,12.687c8.06-0.002,16.218-2.183,23.545-6.756c16.697-10.426,24.654-30.93,19.349-49.863   C88.414,31.987,87.256,31.333,86.138,31.649z"/></g><text x="0" y="106" fill="#000000" font-size="5px" font-weight="bold" font-family="'Helvetica Neue', Helvetica, Arial-Unicode, Arial, Sans-serif">Created by BomSymbols</text><text x="0" y="111" fill="#000000" font-size="5px" font-weight="bold" font-family="'Helvetica Neue', Helvetica, Arial-Unicode, Arial, Sans-serif">from the Noun Project</text></svg>