<?xml version="1.0" encoding="UTF-8" standalone="no"?>
<svg
   xmlns:dc="http://purl.org/dc/elements/1.1/"
   xmlns:cc="http://creativecommons.org/ns#"
   xmlns:rdf="http://www.w3.org/1999/02/22-rdf-syntax-ns#"
   xmlns:svg="http://www.w3.org/2000/svg"
   xmlns="http://www.w3.org/2000/svg"
   xmlns:sodipodi="http://sodipodi.sourceforge.net/DTD/sodipodi-0.dtd"
   xmlns:inkscape="http://www.inkscape.org/namespaces/inkscape"
   width="10019.152pt"
   height="6706.2896pt"
   version="1.1"
   viewBox="0 0 10019.152 6706.2895"
   id="svg172"
   sodipodi:docname="window-template.svg"
   inkscape:export-filename="/home/urania/git/youchoose.ai/assets/images/concept/screen-analytics.png"
   inkscape:export-xdpi="21"
   inkscape:export-ydpi="21"
   inkscape:version="0.92.5 (2060ec1f9f, 2020-04-08)">
  <metadata
     id="metadata176">
    <rdf:RDF>
      <cc:Work
         rdf:about="">
        <dc:format>image/svg+xml</dc:format>
        <dc:type
           rdf:resource="http://purl.org/dc/dcmitype/StillImage" />
        <dc:title></dc:title>
      </cc:Work>
    </rdf:RDF>
  </metadata>
  <sodipodi:namedview
     pagecolor="#ffffff"
     bordercolor="#666666"
     borderopacity="1"
     objecttolerance="10"
     gridtolerance="10"
     guidetolerance="10"
     inkscape:pageopacity="0"
     inkscape:pageshadow="2"
     inkscape:window-width="1920"
     inkscape:window-height="1016"
     id="namedview174"
     showgrid="false"
     inkscape:zoom="0.04469925"
     inkscape:cx="6877.089"
     inkscape:cy="5070.5978"
     inkscape:window-x="0"
     inkscape:window-y="27"
     inkscape:window-maximized="1"
     inkscape:current-layer="g170" />
  <defs
     id="defs62">
    <symbol
       id="t"
       overflow="visible"
       style="overflow:visible">
      <path
         d="M 11.719,-0.70312 C 11.11353,-0.39062 10.4846,-0.15624 9.8284,0 9.17996,0.16406 8.5003,0.25 7.7815,0.25 5.6565,0.25 3.9729,-0.34375 2.7346,-1.5312 1.4924,-2.7187 0.8752,-4.3281 0.8752,-6.3593 c 0,-2.0391 0.61719,-3.6562 1.8594,-4.8438 1.2383,-1.1875 2.9219,-1.7812 5.0469,-1.7812 0.71875,0 1.3984,0.07813 2.0469,0.23438 0.65625,0.15625 1.2852,0.39062 1.8906,0.70312 v 2.6406 c -0.60547,-0.40625 -1.2031,-0.70703 -1.7969,-0.90625 -0.59375,-0.19531 -1.2188,-0.29688 -1.875,-0.29688 -1.168,0 -2.0898,0.38281 -2.7656,1.1406 -0.67969,0.75 -1.0156,1.7891 -1.0156,3.1094 0,1.3125 0.33594,2.3438 1.0156,3.0938 0.67578,0.75 1.5977,1.125 2.7656,1.125 0.65625,0 1.2812,-0.09375 1.875,-0.28125 0.59375,-0.19531 1.1914,-0.50391 1.7969,-0.92188 z"
         id="path2"
         inkscape:connector-curvature="0" />
    </symbol>
    <symbol
       id="d"
       overflow="visible"
       style="overflow:visible">
      <path
         d="M 8.5781,-6.9688 C 8.30466,-7.0938 8.03904,-7.17974 7.78122,-7.23442 7.5195,-7.29692 7.25388,-7.32817 6.98434,-7.32817 c -0.79297,0 -1.4023,0.25781 -1.8281,0.76562 -0.41797,0.5 -0.625,1.2188 -0.625,2.1562 v 4.4062 h -3.0625 v -9.5781 h 3.0625 v 1.5781 c 0.39453,-0.625 0.84375,-1.0781 1.3438,-1.3594 0.50781,-0.28906 1.125,-0.4375 1.8438,-0.4375 0.10156,0 0.21094,0.00781 0.32812,0.015625 0.125,0 0.30078,0.015625 0.53125,0.046875 z"
         id="path5"
         inkscape:connector-curvature="0" />
    </symbol>
    <symbol
       id="b"
       overflow="visible"
       style="overflow:visible">
      <path
         d="m 11.016,-4.8125 v 0.875 H 3.8754 c 0.070312,0.71875 0.32812,1.2617 0.76562,1.625 0.44531,0.35547 1.0703,0.53125 1.875,0.53125 0.64453,0 1.3008,-0.09375 1.9688,-0.28125 0.67578,-0.19531 1.3672,-0.48828 2.0781,-0.875 v 2.3594 c -0.71875,0.27344 -1.4453,0.47656 -2.1719,0.60938 -0.71875,0.14453 -1.4375,0.21875 -2.1562,0.21875 -1.7422,0 -3.0898,-0.4375 -4.0469,-1.3125 -0.96094,-0.88281 -1.4375,-2.125 -1.4375,-3.7188 0,-1.5625 0.46875,-2.7852 1.4062,-3.6719 0.94531,-0.89453 2.25,-1.3438 3.9062,-1.3438 1.5,0 2.6953,0.45312 3.5938,1.3594 0.90625,0.90625 1.3594,2.1172 1.3594,3.625 z M 7.8754,-5.8281 c 0,-0.58203 -0.17188,-1.0508 -0.51562,-1.4062 -0.33594,-0.35156 -0.77344,-0.53125 -1.3125,-0.53125 -0.59375,0 -1.0781,0.16797 -1.4531,0.5 -0.36719,0.33594 -0.59375,0.8125 -0.6875,1.4375 z"
         id="path8"
         inkscape:connector-curvature="0" />
    </symbol>
    <symbol
       id="k"
       overflow="visible"
       style="overflow:visible">
      <path
         d="m 5.7656,-4.3125 c -0.64844,0 -1.1328,0.10938 -1.4531,0.32812 C 4,-3.76563 3.84375,-3.44532 3.84375,-3.03126 c 0,0.39844 0.125,0.70312 0.375,0.92188 0.25781,0.21875 0.625,0.32812 1.0938,0.32812 0.57031,0 1.0508,-0.20703 1.4375,-0.625 0.39453,-0.41406 0.59375,-0.92969 0.59375,-1.5469 v -0.35938 z m 4.6719,-1.1406 V 0 H 7.3437 v -1.4219 c -0.40625,0.58594 -0.86719,1.0117 -1.375,1.2812 -0.51172,0.25781 -1.1367,0.39062 -1.875,0.39062 -0.99219,0 -1.7969,-0.28516 -2.4219,-0.85938 -0.61719,-0.58203 -0.92188,-1.3359 -0.92188,-2.2656 0,-1.1133 0.38281,-1.9297 1.1562,-2.4531 0.76953,-0.53125 1.9844,-0.79688 3.6406,-0.79688 h 1.7969 v -0.23438 c 0,-0.48828 -0.19531,-0.84375 -0.57812,-1.0625 -0.375,-0.22656 -0.96875,-0.34375 -1.7812,-0.34375 -0.65625,0 -1.2656,0.070313 -1.8281,0.20312 -0.5625,0.125 -1.0859,0.32031 -1.5625,0.57812 v -2.3281 c 0.65625,-0.15625 1.3125,-0.27344 1.9688,-0.35938 0.65625,-0.082031 1.3164,-0.125 1.9844,-0.125 1.7266,0 2.9727,0.33984 3.7344,1.0156 0.76953,0.67969 1.1562,1.7891 1.1562,3.3281 z"
         id="path11"
         inkscape:connector-curvature="0" />
    </symbol>
    <symbol
       id="c"
       overflow="visible"
       style="overflow:visible">
      <path
         d="m 4.8125,-12.281 v 2.7031 h 3.1562 v 2.1875 H 4.8125 v 4.0625 c 0,0.44922 0.085938,0.75 0.26562,0.90625 0.17578,0.15625 0.52344,0.23438 1.0469,0.23438 h 1.5781 v 2.1875 h -2.625 c -1.2109,0 -2.0703,-0.25 -2.5781,-0.75 -0.5,-0.50781 -0.75,-1.3672 -0.75,-2.5781 v -4.0625 h -1.5156 v -2.1875 h 1.5156 v -2.7031 z"
         id="path14"
         inkscape:connector-curvature="0" />
    </symbol>
    <symbol
       id="j"
       overflow="visible"
       style="overflow:visible">
      <path
         d="m 7.9844,-8.1719 v -5.125 h 3.0781 V 1e-4 H 7.9844 v -1.3906 c -0.42969,0.57422 -0.89844,0.99219 -1.4062,1.25 -0.5,0.25781 -1.0859,0.39062 -1.75,0.39062 -1.1797,0 -2.1484,-0.46875 -2.9062,-1.4062 -0.76172,-0.9375 -1.1406,-2.1445 -1.1406,-3.625 0,-1.4688 0.37891,-2.6719 1.1406,-3.6094 0.75781,-0.9375 1.7266,-1.4062 2.9062,-1.4062 0.65625,0 1.2383,0.13672 1.75,0.40625 0.50781,0.26172 0.97656,0.66797 1.4062,1.2188 z m -2.0156,6.2031 c 0.65625,0 1.1562,-0.23828 1.5,-0.71875 0.34375,-0.47656 0.51562,-1.1758 0.51562,-2.0938 0,-0.90625 -0.17188,-1.5977 -0.51562,-2.0781 -0.34375,-0.47656 -0.84375,-0.71875 -1.5,-0.71875 -0.65625,0 -1.1562,0.24219 -1.5,0.71875 -0.34375,0.48047 -0.51562,1.1719 -0.51562,2.0781 0,0.91797 0.17188,1.6172 0.51562,2.0938 0.34375,0.48047 0.84375,0.71875 1.5,0.71875 z"
         id="path17"
         inkscape:connector-curvature="0" />
    </symbol>
    <symbol
       id="f"
       overflow="visible"
       style="overflow:visible">
      <path
         d="m 6.5625,-1.9688 c 0.65625,0 1.1562,-0.23828 1.5,-0.71875 0.34375,-0.47656 0.51562,-1.1758 0.51562,-2.0938 0,-0.90625 -0.17188,-1.5977 -0.51562,-2.0781 -0.34375,-0.47656 -0.84375,-0.71875 -1.5,-0.71875 -0.65625,0 -1.1641,0.24219 -1.5156,0.71875 -0.34375,0.48047 -0.51562,1.1719 -0.51562,2.0781 0,0.9062 0.17188,1.6055 0.51562,2.0938 0.35156,0.48047 0.85938,0.71875 1.5156,0.71875 z M 4.5313,-8.1719 c 0.41406,-0.55078 0.87891,-0.95703 1.3906,-1.2188 0.51953,-0.26953 1.1133,-0.40625 1.7812,-0.40625 1.1758,0 2.1406,0.46875 2.8906,1.4062 0.75781,0.9375 1.1406,2.1406 1.1406,3.6094 0,1.4805 -0.38281,2.6875 -1.1406,3.625 -0.75,0.9375 -1.7148,1.4062 -2.8906,1.4062 -0.66797,0 -1.2617,-0.13281 -1.7812,-0.39062 -0.51172,-0.26953 -0.97656,-0.6875 -1.3906,-1.25 v 1.3906 H 1.4688 v -13.297 h 3.0625 z"
         id="path20"
         inkscape:connector-curvature="0" />
    </symbol>
    <symbol
       id="e"
       overflow="visible"
       style="overflow:visible">
      <path
         d="m 0.21875,-9.5781 h 3.0469 l 2.5781,6.5 2.1875,-6.5 h 3.0625 L 7.06255,0.9059 C 6.6563,1.9684 6.17974,2.7106 5.64065,3.1403 5.1094,3.56608 4.39845,3.78092 3.51565,3.78092 h -1.7656 v -2.0156 h 0.95312 c 0.51953,0 0.89844,-0.085937 1.1406,-0.25 C 4.08205,1.34735 4.26565,1.05048 4.39065,0.6247 l 0.09375,-0.25 z"
         id="path23"
         inkscape:connector-curvature="0" />
    </symbol>
    <symbol
       id="i"
       overflow="visible"
       style="overflow:visible">
      <path
         d="m 10.484,-12.359 v 2.7031 c -0.69922,-0.3125 -1.3828,-0.54688 -2.0469,-0.70312 -0.66797,-0.16406 -1.2969,-0.25 -1.8906,-0.25 -0.79297,0 -1.375,0.10938 -1.75,0.32812 -0.375,0.21874 -0.5625,0.55859 -0.5625,1.0156 0,0.33594 0.125,0.60156 0.375,0.79688 0.25781,0.1875 0.72266,0.35156 1.3906,0.48438 l 1.4062,0.28125 c 1.4141,0.29297 2.4219,0.73047 3.0156,1.3125 0.60156,0.57422 0.90625,1.3984 0.90625,2.4688 0,1.4062 -0.42188,2.4531 -1.2656,3.1406 -0.83594,0.6875 -2.1055,1.0312 -3.8125,1.0312 -0.8125,0 -1.625,-0.078125 -2.4375,-0.23438 -0.8125,-0.156255 -1.625,-0.38281 -2.4375,-0.6875 v -2.7656 c 0.8125,0.42969 1.5977,0.75 2.3594,0.96875 0.75781,0.21875 1.4922,0.32812 2.2031,0.32812 0.70703,0 1.2539,-0.11719 1.6406,-0.35938 0.38281,-0.23828 0.57812,-0.57812 0.57812,-1.0156 0,-0.40625 -0.13281,-0.71094 -0.39062,-0.92188 -0.26172,-0.21875 -0.77734,-0.41406 -1.5469,-0.59375 l -1.2812,-0.28125 c -1.2734,-0.26953 -2.2031,-0.70312 -2.7969,-1.2969 -0.59375,-0.60156 -0.89062,-1.4102 -0.89062,-2.4219 0,-1.2695 0.41016,-2.2422 1.2344,-2.9219 0.82031,-0.6875 2.0039,-1.0312 3.5469,-1.0312 0.69531,0 1.4141,0.05469 2.1562,0.15625 0.73828,0.10547 1.5039,0.26172 2.2969,0.46875 z"
         id="path26"
         inkscape:connector-curvature="0" />
    </symbol>
    <symbol
       id="h"
       overflow="visible"
       style="overflow:visible">
      <path
         d="m 10.344,-7.9844 c 0.38281,-0.59375 0.84375,-1.0391 1.375,-1.3438 0.53125,-0.3125 1.1133,-0.46875 1.75,-0.46875 1.1016,0 1.9414,0.33984 2.5156,1.0156 0.57031,0.67969 0.85938,1.6641 0.85938,2.9531 v 5.8281 h -3.0625 v -4.9844 -0.23438 c 0.0078,-0.082031 0.01563,-0.19531 0.01563,-0.34375 0,-0.67578 -0.10547,-1.1641 -0.3125,-1.4688 -0.19922,-0.3125 -0.51562,-0.46875 -0.95312,-0.46875 -0.58594,0 -1.0391,0.24219 -1.3594,0.71875 -0.3125,0.48047 -0.47656,1.1719 -0.48438,2.0781 v 4.7031 h -3.0781 v -4.9844 c 0,-1.0625 -0.09375,-1.7422 -0.28125,-2.0469 -0.17969,-0.3125 -0.5,-0.46875 -0.96875,-0.46875 -0.58594,0 -1.0391,0.24609 -1.3594,0.73438 -0.3125,0.48047 -0.46875,1.168 -0.46875,2.0625 v 4.7031 h -3.0781 v -9.5781 h 3.0781 v 1.4062 c 0.375,-0.53906 0.80078,-0.94531 1.2812,-1.2188 0.48828,-0.26953 1.0312,-0.40625 1.625,-0.40625 0.65625,0 1.2383,0.16406 1.75,0.48438 0.50781,0.3125 0.89453,0.75781 1.1562,1.3281 z"
         id="path29"
         inkscape:connector-curvature="0" />
    </symbol>
    <symbol
       id="a"
       overflow="visible"
       style="overflow:visible">
      <path
         d="m 6.0312,-7.6094 c -0.6875,0 -1.2109,0.24609 -1.5625,0.73438 -0.35547,0.48047 -0.53125,1.1797 -0.53125,2.0938 0,0.91797 0.17578,1.6211 0.53125,2.1094 0.35156,0.49219 0.875,0.73438 1.5625,0.73438 0.66406,0 1.1719,-0.24219 1.5156,-0.73438 0.35156,-0.48828 0.53125,-1.1914 0.53125,-2.1094 0,-0.91406 -0.17969,-1.6133 -0.53125,-2.0938 C 7.20305,-7.3633 6.69524,-7.6094 6.0312,-7.6094 Z m 0,-2.1875 c 1.6445,0 2.9258,0.44531 3.8438,1.3281 0.92578,0.88672 1.3906,2.1172 1.3906,3.6875 0,1.5742 -0.46484,2.8086 -1.3906,3.7031 C 8.95703,-0.19148 7.6758,0.2499 6.0312,0.2499 4.375,0.2499 3.0781,-0.19151 2.1406,-1.0782 1.21091,-1.97273 0.75,-3.2071 0.75,-4.7813 c 0,-1.5703 0.46094,-2.8008 1.3906,-3.6875 0.9375,-0.88281 2.2344,-1.3281 3.8906,-1.3281 z"
         id="path32"
         inkscape:connector-curvature="0" />
    </symbol>
    <symbol
       id="s"
       overflow="visible"
       style="overflow:visible">
      <path
         d="M 1.4688,-13.297 H 4.5313 V 0 H 1.4688 Z"
         id="path35"
         inkscape:connector-curvature="0" />
    </symbol>
    <symbol
       id="g"
       overflow="visible"
       style="overflow:visible">
      <path
         d="M 11.094,-5.8281 V 0 H 8.0159 v -4.4531 c 0,-0.83203 -0.023437,-1.4062 -0.0625,-1.7188 C 7.92215,-6.4844 7.85965,-6.71096 7.7659,-6.8594 7.64871,-7.05471 7.48856,-7.21096 7.28152,-7.32815 7.07058,-7.44143 6.83621,-7.50003 6.5784,-7.50003 c -0.63672,0 -1.1367,0.25 -1.5,0.75 -0.36719,0.49219 -0.54688,1.1719 -0.54688,2.0469 V -3e-5 h -3.0625 v -9.5781 h 3.0625 v 1.4062 c 0.45703,-0.55078 0.94531,-0.95703 1.4688,-1.2188 0.51953,-0.26953 1.0938,-0.40625 1.7188,-0.40625 1.1016,0 1.9414,0.33984 2.5156,1.0156 0.57031,0.67969 0.85938,1.6641 0.85938,2.9531 z"
         id="path38"
         inkscape:connector-curvature="0" />
    </symbol>
    <symbol
       id="r"
       overflow="visible"
       style="overflow:visible">
      <path
         d="m 7.7656,-13.297 v 2.0156 H 6.0781 c -0.4375,0 -0.74609,0.07813 -0.92188,0.23438 -0.16797,0.15625 -0.25,0.42969 -0.25,0.8125 v 0.65625 h 2.625 v 2.1875 h -2.625 v 7.3906 h -3.0469 v -7.3906 h -1.5312 v -2.1875 h 1.5312 v -0.65625 c 0,-1.0391 0.28516,-1.8125 0.85938,-2.3125 0.58203,-0.5 1.4844,-0.75 2.7031,-0.75 z"
         id="path41"
         inkscape:connector-curvature="0" />
    </symbol>
    <symbol
       id="q"
       overflow="visible"
       style="overflow:visible">
      <path
         d="M 11.094,-5.8281 V 0 H 8.0159 v -4.4375 c 0,-0.84375 -0.023437,-1.4219 -0.0625,-1.7344 C 7.92215,-6.4844 7.85965,-6.71096 7.7659,-6.8594 7.64871,-7.05471 7.48856,-7.21096 7.28152,-7.32815 7.07058,-7.44143 6.83621,-7.50003 6.5784,-7.50003 c -0.63672,0 -1.1367,0.25 -1.5,0.75 -0.36719,0.49219 -0.54688,1.1719 -0.54688,2.0469 V -3e-5 h -3.0625 v -13.297 h 3.0625 v 5.125 c 0.45703,-0.55078 0.94531,-0.95703 1.4688,-1.2188 0.51953,-0.26953 1.0938,-0.40625 1.7188,-0.40625 1.1016,0 1.9414,0.33984 2.5156,1.0156 0.57031,0.67969 0.85938,1.6641 0.85938,2.9531 z"
         id="path44"
         inkscape:connector-curvature="0" />
    </symbol>
    <symbol
       id="p"
       overflow="visible"
       style="overflow:visible">
      <path
         d="M 1.6094,-12.75 H 5.2813 L 9.9219,-4 v -8.75 h 3.125 V 0 H 9.3594 L 4.7188,-8.75 V 0 H 1.6094 Z"
         id="path47"
         inkscape:connector-curvature="0" />
    </symbol>
    <symbol
       id="o"
       overflow="visible"
       style="overflow:visible">
      <path
         d="m 1.375,-3.7188 v -5.8594 h 3.0625 v 0.96875 c 0,0.52344 -0.00781,1.1719 -0.015625,1.9531 v 1.5625 c 0,0.77344 0.019531,1.3281 0.0625,1.6719 0.039063,0.33594 0.10938,0.57812 0.20312,0.73438 0.125,0.19922 0.28516,0.35547 0.48438,0.46875 0.20703,0.10547 0.44141,0.15625 0.70312,0.15625 0.64453,0 1.1484,-0.24219 1.5156,-0.73438 0.36328,-0.48828 0.54688,-1.1719 0.54688,-2.0469 v -4.7344 h 3.0469 v 9.5781 h -3.0469 v -1.3906 c -0.46875,0.5625 -0.96484,0.98047 -1.4844,1.25 -0.51172,0.25781 -1.0742,0.39062 -1.6875,0.39062 -1.1055,0 -1.9492,-0.33594 -2.5312,-1.0156 -0.57422,-0.67578 -0.85938,-1.6602 -0.85938,-2.9531 z"
         id="path50"
         inkscape:connector-curvature="0" />
    </symbol>
    <symbol
       id="n"
       overflow="visible"
       style="overflow:visible">
      <path
         d="m 1.6094,-12.75 h 5.4531 c 1.625,0 2.8672,0.35938 3.7344,1.0781 0.875,0.71875 1.3125,1.7461 1.3125,3.0781 0,1.3359 -0.4375,2.3672 -1.3125,3.0938 -0.86719,0.71875 -2.1094,1.0781 -3.7344,1.0781 H 4.8906 V 0 H 1.6094 Z m 3.2812,2.375 v 3.5625 h 1.8281 c 0.63281,0 1.125,-0.14844 1.4688,-0.45312 0.35156,-0.3125 0.53125,-0.75391 0.53125,-1.3281 0,-0.57031 -0.17969,-1.0078 -0.53125,-1.3125 -0.34375,-0.3125 -0.83594,-0.46875 -1.4688,-0.46875 z"
         id="path53"
         inkscape:connector-curvature="0" />
    </symbol>
    <symbol
       id="m"
       overflow="visible"
       style="overflow:visible">
      <path
         d="m 1.4688,-9.5781 h 3.0625 v 9.4062 c 0,1.2812 -0.30859,2.2578 -0.92188,2.9375 -0.61719,0.67578 -1.5078,1.0156 -2.6719,1.0156 h -1.5156 V 1.7656 h 0.53125 c 0.58203,0 0.97656,-0.13281 1.1875,-0.39062 0.21875,-0.26172 0.32812,-0.77734 0.32812,-1.5469 z m 0,-3.7188 h 3.0625 v 2.5 H 1.4688 Z"
         id="path56"
         inkscape:connector-curvature="0" />
    </symbol>
    <symbol
       id="l"
       overflow="visible"
       style="overflow:visible">
      <path
         d="m 9.2031,-9.2656 v 2.4844 C 8.78513,-7.06245 8.36716,-7.26948 7.9531,-7.4062 7.53513,-7.53901 7.09763,-7.60932 6.6406,-7.60932 c -0.85547,0 -1.5234,0.25 -2,0.75 -0.46875,0.49219 -0.70312,1.1836 -0.70312,2.0781 0,0.89844 0.23438,1.5938 0.70312,2.0938 0.47656,0.5 1.1445,0.75 2,0.75 0.47656,0 0.92969,-0.066406 1.3594,-0.20312 0.4375,-0.14453 0.83594,-0.35938 1.2031,-0.64062 v 2.5 C 8.72263,-0.10147 8.23435,0.02353 7.7343,0.10946 7.24211,0.20321 6.75383,0.25008 6.2655,0.25008 c -1.7305,0 -3.0859,-0.44141 -4.0625,-1.3281 -0.96875,-0.88281 -1.4531,-2.1172 -1.4531,-3.7031 0,-1.5703 0.48438,-2.8008 1.4531,-3.6875 0.97656,-0.88281 2.332,-1.3281 4.0625,-1.3281 0.5,0 0.99219,0.046875 1.4844,0.14062 0.48828,0.085938 0.97266,0.21484 1.4531,0.39062 z"
         id="path59"
         inkscape:connector-curvature="0" />
    </symbol>
  </defs>
  <g
     id="g170"
     transform="translate(-12903.147,7616.4304)">
    <rect
       style="fill:#f5f5f5;fill-opacity:1;stroke:#f5f5f5;stroke-width:0.55343407;stroke-linecap:round;stroke-linejoin:round;stroke-miterlimit:4;stroke-dasharray:none;stroke-opacity:1"
       id="rect1007"
       width="9852.5312"
       height="251.79475"
       x="12969.317"
       y="-7493.6934" />
    <g
       id="g1025"
       transform="matrix(0.53590805,0,0,0.53590805,3763.5748,-8532.248)"
       style="fill:#1a030e;fill-opacity:1">
      <path
         style="fill:#1a030e;fill-opacity:1;stroke-width:9.70997238"
         d="M 35361.35,1708.9195 H 20209.421 c 44.682,45.516 83.827,95.9999 116.481,150.9225 16.69,28.0677 31.443,57.1593 44.567,86.9721 H 35361.31 c 83.255,0 159.255,68.05 150.883,150.8834 v 276.9572 H 18105.32 c 29.734,47.8678 47.521,101.9158 51.127,159.2635 0.201,3.7544 0,7.0164 0.07,10.6585 H 35512.223 V 13833.953 c 0,83.254 -67.628,150.882 -150.883,150.882 l -17926.943,-1.021 c -78.856,-4.4 -142.044,-69.677 -142.044,-149.864 V 2544.5747 h 1427.173 c 0.135,-3.11 -0.134,-6.0309 0,-9.1409 3.714,-58.5249 21.5,-112.84 51.241,-160.7879 h -1478.535 v -276.9571 c 0,-83.2553 67.628,-150.8835 150.883,-150.8835 h 3280.513 c 9.896,-25.4132 20.592,-50.5976 32.694,-75.139 28.9,-59.4735 63.908,-114.1693 103.47,-162.7582 h -3416.65 c -214.455,0 -388.776,174.3229 -388.776,388.7773 V 13834.011 c 0,214.455 174.321,388.778 388.776,388.778 h 17918.104 c 214.455,0 388.776,-174.323 388.776,-388.778 V 2097.6854 c 0,-214.4544 -174.321,-388.7773 -388.776,-388.7773 z"
         id="path98-5-2"
         inkscape:connector-curvature="0"
         sodipodi:nodetypes="ccccsscccccsccscccccssccccsssssscc" />
      <path
         style="fill:#1a030e;fill-opacity:1;stroke-width:9.70997238"
         inkscape:connector-curvature="0"
         d="m 18123.914,2159.8706 c 0,48.0185 38.991,86.8961 87.09,86.8961 48.092,0 87.083,-38.9153 87.083,-86.8961 0,-47.9815 -38.991,-86.8967 -87.083,-86.8967 -48.099,0 -87.09,38.9536 -87.09,86.8967 z"
         id="path88-7-7" />
      <path
         style="fill:#1a030e;fill-opacity:1;stroke-width:9.70997238"
         inkscape:connector-curvature="0"
         d="m 17821.158,2159.8706 c 0,48.0185 38.991,86.8961 87.083,86.8961 48.1,0 87.09,-38.9153 87.09,-86.8961 0,-47.9815 -38.99,-86.8967 -87.09,-86.8967 -48.126,0 -87.083,38.9536 -87.083,86.8967 z"
         id="path90-5-0" />
      <path
         style="fill:#1a030e;fill-opacity:1;stroke-width:9.70997238"
         inkscape:connector-curvature="0"
         d="m 17518.302,2159.8706 c 0,48.0185 38.99,86.8961 87.089,86.8961 48.093,0 87.083,-38.9153 87.083,-86.8961 0,-47.9815 -38.99,-86.8967 -87.083,-86.8967 -48.132,0 -87.089,38.9536 -87.089,86.8967 z"
         id="path92-3-9" />
    </g>
  </g>
</svg>
