<?xml version="1.0" encoding="UTF-8"?>
<svg xmlns="http://www.w3.org/2000/svg" xmlns:xlink="http://www.w3.org/1999/xlink" width="2493" height="1581" preserveAspectRatio="xMidYMid" viewBox="0 0 2493 1581" style="z-index:1;display:block;background-color:rgb(241, 242, 243);animation-play-state:paused"><g transform="translate(1246.5,790.5) scale(1,1) translate(-1246.5,-790.5)" style="animation-play-state:paused"><defs style="animation-play-state:paused"><linearGradient id="lg-0.23355233219661753" x1="0" x2="0" y1="0" y2="1" style="animation-play-state:paused"><stop stop-color="#572b8f" offset="0.19" style="animation-play-state:paused"/>

  
<stop stop-color="#e33180" offset="0.595" style="animation-play-state:paused"/>

  
<stop stop-color="#e33180" offset="1" style="animation-play-state:paused"/></linearGradient>


<linearGradient id="fg-lg-0.23355233219661753" x1="0" x2="0" y1="0" y2="1" style="animation-play-state:paused"><stop stop-color="#572b8f" stop-opacity="1" offset="0.19" style="animation-play-state:paused"/>

  
<stop stop-color="#e33180" stop-opacity="0.66" offset="0.595" style="animation-play-state:paused"/>

  
<stop stop-color="#e33180" stop-opacity="0" offset="1" style="animation-play-state:paused"/></linearGradient>


<style type="text/css" style="animation-play-state:paused">path { fill: none; stroke: #1a030e; stroke-width: 20px }</style></defs>


<rect x="0" y="0" width="2493" height="1581" fill="url(#lg-0.23355233219661753)" style="animation-play-state:paused"/>
<path d="M0 300.39 L-13836.15 1581" style="animation-play-state:paused"/>
<path d="M14.410404624277456 300.39 L-13661.784104046243 1581" style="animation-play-state:paused"/>
<path d="M28.820809248554912 300.39 L-13487.418208092486 1581" style="animation-play-state:paused"/>
<path d="M43.23121387283237 300.39 L-13313.052312138729 1581" style="animation-play-state:paused"/>
<path d="M57.641618497109825 300.39 L-13138.68641618497 1581" style="animation-play-state:paused"/>
<path d="M72.05202312138728 300.39 L-12964.320520231213 1581" style="animation-play-state:paused"/>
<path d="M86.46242774566474 300.39 L-12789.954624277456 1581" style="animation-play-state:paused"/>
<path d="M100.8728323699422 300.39 L-12615.588728323699 1581" style="animation-play-state:paused"/>
<path d="M115.28323699421965 300.39 L-12441.222832369942 1581" style="animation-play-state:paused"/>
<path d="M129.6936416184971 300.39 L-12266.856936416185 1581" style="animation-play-state:paused"/>
<path d="M144.10404624277456 300.39 L-12092.491040462428 1581" style="animation-play-state:paused"/>
<path d="M158.51445086705203 300.39 L-11918.125144508671 1581" style="animation-play-state:paused"/>
<path d="M172.92485549132948 300.39 L-11743.759248554914 1581" style="animation-play-state:paused"/>
<path d="M187.33526011560693 300.39 L-11569.393352601157 1581" style="animation-play-state:paused"/>
<path d="M201.7456647398844 300.39 L-11395.027456647398 1581" style="animation-play-state:paused"/>
<path d="M216.15606936416185 300.39 L-11220.661560693641 1581" style="animation-play-state:paused"/>
<path d="M230.5664739884393 300.39 L-11046.295664739884 1581" style="animation-play-state:paused"/>
<path d="M244.97687861271677 300.39 L-10871.929768786127 1581" style="animation-play-state:paused"/>
<path d="M259.3872832369942 300.39 L-10697.563872832368 1581" style="animation-play-state:paused"/>
<path d="M273.7976878612717 300.39 L-10523.197976878613 1581" style="animation-play-state:paused"/>
<path d="M288.2080924855491 300.39 L-10348.832080924854 1581" style="animation-play-state:paused"/>
<path d="M302.6184971098266 300.39 L-10174.466184971097 1581" style="animation-play-state:paused"/>
<path d="M317.02890173410407 300.39 L-10000.10028901734 1581" style="animation-play-state:paused"/>
<path d="M331.4393063583815 300.39 L-9825.734393063583 1581" style="animation-play-state:paused"/>
<path d="M345.84971098265896 300.39 L-9651.368497109826 1581" style="animation-play-state:paused"/>
<path d="M360.26011560693644 300.39 L-9477.00260115607 1581" style="animation-play-state:paused"/>
<path d="M374.67052023121386 300.39 L-9302.636705202312 1581" style="animation-play-state:paused"/>
<path d="M389.08092485549133 300.39 L-9128.270809248555 1581" style="animation-play-state:paused"/>
<path d="M403.4913294797688 300.39 L-8953.904913294798 1581" style="animation-play-state:paused"/>
<path d="M417.9017341040462 300.39 L-8779.539017341041 1581" style="animation-play-state:paused"/>
<path d="M432.3121387283237 300.39 L-8605.173121387283 1581" style="animation-play-state:paused"/>
<path d="M446.7225433526012 300.39 L-8430.807225433526 1581" style="animation-play-state:paused"/>
<path d="M461.1329479768786 300.39 L-8256.441329479769 1581" style="animation-play-state:paused"/>
<path d="M475.5433526011561 300.39 L-8082.075433526011 1581" style="animation-play-state:paused"/>
<path d="M489.95375722543355 300.39 L-7907.709537572254 1581" style="animation-play-state:paused"/>
<path d="M504.36416184971097 300.39 L-7733.343641618497 1581" style="animation-play-state:paused"/>
<path d="M518.7745664739884 300.39 L-7558.977745664739 1581" style="animation-play-state:paused"/>
<path d="M533.1849710982659 300.39 L-7384.611849710983 1581" style="animation-play-state:paused"/>
<path d="M547.5953757225434 300.39 L-7210.245953757226 1581" style="animation-play-state:paused"/>
<path d="M562.0057803468208 300.39 L-7035.880057803468 1581" style="animation-play-state:paused"/>
<path d="M576.4161849710982 300.39 L-6861.514161849711 1581" style="animation-play-state:paused"/>
<path d="M590.8265895953757 300.39 L-6687.148265895953 1581" style="animation-play-state:paused"/>
<path d="M605.2369942196532 300.39 L-6512.782369942197 1581" style="animation-play-state:paused"/>
<path d="M619.6473988439307 300.39 L-6338.416473988439 1581" style="animation-play-state:paused"/>
<path d="M634.0578034682081 300.39 L-6164.050578034682 1581" style="animation-play-state:paused"/>
<path d="M648.4682080924855 300.39 L-5989.684682080924 1581" style="animation-play-state:paused"/>
<path d="M662.878612716763 300.39 L-5815.318786127167 1581" style="animation-play-state:paused"/>
<path d="M677.2890173410404 300.39 L-5640.95289017341 1581" style="animation-play-state:paused"/>
<path d="M691.6994219653179 300.39 L-5466.586994219653 1581" style="animation-play-state:paused"/>
<path d="M706.1098265895954 300.39 L-5292.221098265896 1581" style="animation-play-state:paused"/>
<path d="M720.5202312138729 300.39 L-5117.855202312139 1581" style="animation-play-state:paused"/>
<path d="M734.9306358381502 300.39 L-4943.48930635838 1581" style="animation-play-state:paused"/>
<path d="M749.3410404624277 300.39 L-4769.123410404625 1581" style="animation-play-state:paused"/>
<path d="M763.7514450867052 300.39 L-4594.757514450866 1581" style="animation-play-state:paused"/>
<path d="M778.1618497109827 300.39 L-4420.391618497109 1581" style="animation-play-state:paused"/>
<path d="M792.5722543352601 300.39 L-4246.0257225433525 1581" style="animation-play-state:paused"/>
<path d="M806.9826589595376 300.39 L-4071.6598265895955 1581" style="animation-play-state:paused"/>
<path d="M821.393063583815 300.39 L-3897.2939306358385 1581" style="animation-play-state:paused"/>
<path d="M835.8034682080925 300.39 L-3722.9280346820815 1581" style="animation-play-state:paused"/>
<path d="M850.2138728323699 300.39 L-3548.5621387283245 1581" style="animation-play-state:paused"/>
<path d="M864.6242774566474 300.39 L-3374.1962427745657 1581" style="animation-play-state:paused"/>
<path d="M879.0346820809249 300.39 L-3199.8303468208087 1581" style="animation-play-state:paused"/>
<path d="M893.4450867052024 300.39 L-3025.4644508670517 1581" style="animation-play-state:paused"/>
<path d="M907.8554913294797 300.39 L-2851.0985549132947 1581" style="animation-play-state:paused"/>
<path d="M922.2658959537572 300.39 L-2676.7326589595377 1581" style="animation-play-state:paused"/>
<path d="M936.6763005780347 300.39 L-2502.3667630057807 1581" style="animation-play-state:paused"/>
<path d="M951.0867052023121 300.39 L-2328.000867052022 1581" style="animation-play-state:paused"/>
<path d="M965.4971098265896 300.39 L-2153.6349710982668 1581" style="animation-play-state:paused"/>
<path d="M979.9075144508671 300.39 L-1979.269075144508 1581" style="animation-play-state:paused"/>
<path d="M994.3179190751445 300.39 L-1804.903179190751 1581" style="animation-play-state:paused"/>
<path d="M1008.7283236994219 300.39 L-1630.537283236994 1581" style="animation-play-state:paused"/>
<path d="M1023.1387283236994 300.39 L-1456.171387283237 1581" style="animation-play-state:paused"/>
<path d="M1037.549132947977 300.39 L-1281.8054913294782 1581" style="animation-play-state:paused"/>
<path d="M1051.9595375722542 300.39 L-1107.439595375723 1581" style="animation-play-state:paused"/>
<path d="M1066.3699421965318 300.39 L-933.073699421966 1581" style="animation-play-state:paused"/>
<path d="M1080.7803468208092 300.39 L-758.7078034682072 1581" style="animation-play-state:paused"/>
<path d="M1095.1907514450868 300.39 L-584.341907514452 1581" style="animation-play-state:paused"/>
<path d="M1109.6011560693642 300.39 L-409.9760115606932 1581" style="animation-play-state:paused"/>
<path d="M1124.0115606936415 300.39 L-235.61011560693623 1581" style="animation-play-state:paused"/>
<path d="M1138.421965317919 300.39 L-61.24421965318106 1581" style="animation-play-state:paused"/>
<path d="M1152.8323699421965 300.39 L113.12167630057775 1581" style="animation-play-state:paused"/>
<path d="M1167.242774566474 300.39 L287.48757225433474 1581" style="animation-play-state:paused"/>
<path d="M1181.6531791907514 300.39 L461.85346820809355 1581" style="animation-play-state:paused"/>
<path d="M1196.063583815029 300.39 L636.2193641618487 1581" style="animation-play-state:paused"/>
<path d="M1210.4739884393064 300.39 L810.5852601156057 1581" style="animation-play-state:paused"/>
<path d="M1224.8843930635837 300.39 L984.9511560693645 1581" style="animation-play-state:paused"/>
<path d="M1239.2947976878613 300.39 L1159.3170520231215 1581" style="animation-play-state:paused"/>
<path d="M1253.7052023121387 300.39 L1333.6829479768803 1581" style="animation-play-state:paused"/>
<path d="M1268.1156069364163 300.39 L1508.0488439306355 1581" style="animation-play-state:paused"/>
<path d="M1282.5260115606936 300.39 L1682.4147398843925 1581" style="animation-play-state:paused"/>
<path d="M1296.936416184971 300.39 L1856.7806358381513 1581" style="animation-play-state:paused"/>
<path d="M1311.3468208092486 300.39 L2031.1465317919065 1581" style="animation-play-state:paused"/>
<path d="M1325.757225433526 300.39 L2205.5124277456653 1581" style="animation-play-state:paused"/>
<path d="M1340.1676300578035 300.39 L2379.8783236994223 1581" style="animation-play-state:paused"/>
<path d="M1354.578034682081 300.39 L2554.2442196531792 1581" style="animation-play-state:paused"/>
<path d="M1368.9884393063585 300.39 L2728.6101156069362 1581" style="animation-play-state:paused"/>
<path d="M1383.3988439306358 300.39 L2902.976011560693 1581" style="animation-play-state:paused"/>
<path d="M1397.8092485549132 300.39 L3077.34190751445 1581" style="animation-play-state:paused"/>
<path d="M1412.2196531791908 300.39 L3251.707803468207 1581" style="animation-play-state:paused"/>
<path d="M1426.6300578034682 300.39 L3426.073699421964 1581" style="animation-play-state:paused"/>
<path d="M1441.0404624277458 300.39 L3600.439595375721 1581" style="animation-play-state:paused"/>
<path d="M1455.450867052023 300.39 L3774.805491329478 1581" style="animation-play-state:paused"/>
<path d="M1469.8612716763005 300.39 L3949.171387283239 1581" style="animation-play-state:paused"/>
<path d="M1484.271676300578 300.39 L4123.537283236996 1581" style="animation-play-state:paused"/>
<path d="M1498.6820809248554 300.39 L4297.903179190749 1581" style="animation-play-state:paused"/>
<path d="M1513.092485549133 300.39 L4472.26907514451 1581" style="animation-play-state:paused"/>
<path d="M1527.5028901734104 300.39 L4646.634971098267 1581" style="animation-play-state:paused"/>
<path d="M1541.913294797688 300.39 L4821.000867052024 1581" style="animation-play-state:paused"/>
<path d="M1556.3236994219653 300.39 L4995.366763005781 1581" style="animation-play-state:paused"/>
<path d="M1570.7341040462427 300.39 L5169.732658959538 1581" style="animation-play-state:paused"/>
<path d="M1585.1445086705203 300.39 L5344.098554913295 1581" style="animation-play-state:paused"/>
<path d="M1599.5549132947976 300.39 L5518.464450867052 1581" style="animation-play-state:paused"/>
<path d="M1613.9653179190752 300.39 L5692.830346820809 1581" style="animation-play-state:paused"/>
<path d="M1628.3757225433526 300.39 L5867.196242774566 1581" style="animation-play-state:paused"/>
<path d="M1642.78612716763 300.39 L6041.562138728323 1581" style="animation-play-state:paused"/>
<path d="M1657.1965317919075 300.39 L6215.92803468208 1581" style="animation-play-state:paused"/>
<path d="M1671.606936416185 300.39 L6390.293930635837 1581" style="animation-play-state:paused"/>
<path d="M1686.0173410404625 300.39 L6564.659826589597 1581" style="animation-play-state:paused"/>
<path d="M1700.4277456647399 300.39 L6739.025722543351 1581" style="animation-play-state:paused"/>
<path d="M1714.8381502890174 300.39 L6913.391618497108 1581" style="animation-play-state:paused"/>
<path d="M1729.2485549132948 300.39 L7087.757514450868 1581" style="animation-play-state:paused"/>
<path d="M1743.6589595375722 300.39 L7262.123410404625 1581" style="animation-play-state:paused"/>
<path d="M1758.0693641618498 300.39 L7436.489306358382 1581" style="animation-play-state:paused"/>
<path d="M1772.4797687861271 300.39 L7610.855202312139 1581" style="animation-play-state:paused"/>
<path d="M1786.8901734104047 300.39 L7785.221098265896 1581" style="animation-play-state:paused"/>
<path d="M1801.300578034682 300.39 L7959.586994219653 1581" style="animation-play-state:paused"/>
<path d="M1815.7109826589594 300.39 L8133.95289017341 1581" style="animation-play-state:paused"/>
<path d="M1830.121387283237 300.39 L8308.318786127167 1581" style="animation-play-state:paused"/>
<path d="M1844.5317919075144 300.39 L8482.684682080924 1581" style="animation-play-state:paused"/>
<path d="M1858.942196531792 300.39 L8657.050578034681 1581" style="animation-play-state:paused"/>
<path d="M1873.3526011560693 300.39 L8831.416473988438 1581" style="animation-play-state:paused"/>
<path d="M1887.763005780347 300.39 L9005.782369942195 1581" style="animation-play-state:paused"/>
<path d="M1902.1734104046243 300.39 L9180.148265895956 1581" style="animation-play-state:paused"/>
<path d="M1916.5838150289017 300.39 L9354.51416184971 1581" style="animation-play-state:paused"/>
<path d="M1930.9942196531792 300.39 L9528.880057803466 1581" style="animation-play-state:paused"/>
<path d="M1945.4046242774566 300.39 L9703.245953757227 1581" style="animation-play-state:paused"/>
<path d="M1959.8150289017342 300.39 L9877.611849710984 1581" style="animation-play-state:paused"/>
<path d="M1974.2254335260116 300.39 L10051.97774566474 1581" style="animation-play-state:paused"/>
<path d="M1988.635838150289 300.39 L10226.343641618498 1581" style="animation-play-state:paused"/>
<path d="M2003.0462427745665 300.39 L10400.709537572255 1581" style="animation-play-state:paused"/>
<path d="M2017.4566473988439 300.39 L10575.075433526012 1581" style="animation-play-state:paused"/>
<path d="M2031.8670520231215 300.39 L10749.441329479769 1581" style="animation-play-state:paused"/>
<path d="M2046.2774566473988 300.39 L10923.807225433526 1581" style="animation-play-state:paused"/>
<path d="M2060.6878612716764 300.39 L11098.173121387279 1581" style="animation-play-state:paused"/>
<path d="M2075.098265895954 300.39 L11272.539017341043 1581" style="animation-play-state:paused"/>
<path d="M2089.508670520231 300.39 L11446.904913294797 1581" style="animation-play-state:paused"/>
<path d="M2103.9190751445085 300.39 L11621.270809248554 1581" style="animation-play-state:paused"/>
<path d="M2118.3294797687863 300.39 L11795.63670520231 1581" style="animation-play-state:paused"/>
<path d="M2132.7398843930637 300.39 L11970.002601156068 1581" style="animation-play-state:paused"/>
<path d="M2147.150289017341 300.39 L12144.368497109828 1581" style="animation-play-state:paused"/>
<path d="M2161.5606936416184 300.39 L12318.734393063585 1581" style="animation-play-state:paused"/>
<path d="M2175.9710982658958 300.39 L12493.100289017339 1581" style="animation-play-state:paused"/>
<path d="M2190.3815028901736 300.39 L12667.466184971096 1581" style="animation-play-state:paused"/>
<path d="M2204.791907514451 300.39 L12841.832080924853 1581" style="animation-play-state:paused"/>
<path d="M2219.2023121387283 300.39 L13016.197976878613 1581" style="animation-play-state:paused"/>
<path d="M2233.6127167630057 300.39 L13190.56387283237 1581" style="animation-play-state:paused"/>
<path d="M2248.023121387283 300.39 L13364.929768786127 1581" style="animation-play-state:paused"/>
<path d="M2262.433526011561 300.39 L13539.295664739884 1581" style="animation-play-state:paused"/>
<path d="M2276.843930635838 300.39 L13713.661560693638 1581" style="animation-play-state:paused"/>
<path d="M2291.2543352601156 300.39 L13888.027456647402 1581" style="animation-play-state:paused"/>
<path d="M2305.664739884393 300.39 L14062.393352601155 1581" style="animation-play-state:paused"/>
<path d="M2320.0751445086707 300.39 L14236.759248554912 1581" style="animation-play-state:paused"/>
<path d="M2334.485549132948 300.39 L14411.12514450867 1581" style="animation-play-state:paused"/>
<path d="M2348.8959537572255 300.39 L14585.491040462426 1581" style="animation-play-state:paused"/>
<path d="M2363.306358381503 300.39 L14759.856936416187 1581" style="animation-play-state:paused"/>
<path d="M2377.71676300578 300.39 L14934.222832369944 1581" style="animation-play-state:paused"/>
<path d="M2392.127167630058 300.39 L15108.588728323697 1581" style="animation-play-state:paused"/>
<path d="M2406.5375722543354 300.39 L15282.954624277454 1581" style="animation-play-state:paused"/>
<path d="M2420.9479768786127 300.39 L15457.320520231211 1581" style="animation-play-state:paused"/>
<path d="M2435.35838150289 300.39 L15631.686416184972 1581" style="animation-play-state:paused"/>
<path d="M2449.7687861271675 300.39 L15806.052312138729 1581" style="animation-play-state:paused"/>
<path d="M2464.1791907514453 300.39 L15980.418208092486 1581" style="animation-play-state:paused"/>
<path d="M2478.5895953757226 300.39 L16154.784104046243 1581" style="animation-play-state:paused"/>
<path d="M2493 300.39 L16329.149999999996 1581" style="animation-play-state:paused"/>
<g transform="matrix(1,0,0,1,0,0)" style="animation-play-state:paused"><path d="M0 300.39 L2493 300.39" style="animation-play-state:paused"/></g>
<g transform="matrix(1,0,0,1,0,0)" style="animation-play-state:paused"><path d="M0 305.8668979919142 L2493 305.8668979919142" style="animation-play-state:paused"/></g>
<g transform="matrix(1,0,0,1,0,0)" style="animation-play-state:paused"><path d="M0 316.8206939757426 L2493 316.8206939757426" style="animation-play-state:paused"/></g>
<g transform="matrix(1,0,0,1,0,0)" style="animation-play-state:paused"><path d="M0 333.2513879514852 L2493 333.2513879514852" style="animation-play-state:paused"/></g>
<g transform="matrix(1,0,0,1,0,0)" style="animation-play-state:paused"><path d="M0 355.158979919142 L2493 355.158979919142" style="animation-play-state:paused"/></g>
<g transform="matrix(1,0,0,1,0,0)" style="animation-play-state:paused"><path d="M0 382.543469878713 L2493 382.543469878713" style="animation-play-state:paused"/></g>
<g transform="matrix(1,0,0,1,0,0)" style="animation-play-state:paused"><path d="M0 415.4048578301982 L2493 415.4048578301982" style="animation-play-state:paused"/></g>
<g transform="matrix(1,0,0,1,0,0)" style="animation-play-state:paused"><path d="M0 453.7431437735976 L2493 453.7431437735976" style="animation-play-state:paused"/></g>
<g transform="matrix(1,0,0,1,0,0)" style="animation-play-state:paused"><path d="M0 497.5583277089112 L2493 497.5583277089112" style="animation-play-state:paused"/></g>
<g transform="matrix(1,0,0,1,0,0)" style="animation-play-state:paused"><path d="M0 546.8504096361389 L2493 546.8504096361389" style="animation-play-state:paused"/></g>
<g transform="matrix(1,0,0,1,0,0)" style="animation-play-state:paused"><path d="M0 601.6193895552809 L2493 601.6193895552809" style="animation-play-state:paused"/></g>
<g transform="matrix(1,0,0,1,0,0)" style="animation-play-state:paused"><path d="M0 661.8652674663371 L2493 661.8652674663371" style="animation-play-state:paused"/></g>
<g transform="matrix(1,0,0,1,0,0)" style="animation-play-state:paused"><path d="M0 727.5880433693075 L2493 727.5880433693075" style="animation-play-state:paused"/></g>
<g transform="matrix(1,0,0,1,0,0)" style="animation-play-state:paused"><path d="M0 798.787717264192 L2493 798.787717264192" style="animation-play-state:paused"/></g>
<g transform="matrix(1,0,0,1,0,0)" style="animation-play-state:paused"><path d="M0 875.4642891509908 L2493 875.4642891509908" style="animation-play-state:paused"/></g>
<g transform="matrix(1,0,0,1,0,0)" style="animation-play-state:paused"><path d="M0 957.6177590297037 L2493 957.6177590297037" style="animation-play-state:paused"/></g>
<g transform="matrix(1,0,0,1,0,0)" style="animation-play-state:paused"><path d="M0 1045.2481269003308 L2493 1045.2481269003308" style="animation-play-state:paused"/></g>
<g transform="matrix(1,0,0,1,0,0)" style="animation-play-state:paused"><path d="M0 1138.3553927628723 L2493 1138.3553927628723" style="animation-play-state:paused"/></g>
<g transform="matrix(1,0,0,1,0,0)" style="animation-play-state:paused"><path d="M0 1236.9395566173278 L2493 1236.9395566173278" style="animation-play-state:paused"/></g>
<g transform="matrix(1,0,0,1,0,0)" style="animation-play-state:paused"><path d="M0 1341.0006184636975 L2493 1341.0006184636975" style="animation-play-state:paused"/></g>
<g transform="matrix(1,0,0,1,0,0)" style="animation-play-state:paused"><path d="M0 1450.5385783019815 L2493 1450.5385783019815" style="animation-play-state:paused"/></g>
<g transform="matrix(1,0,0,1,0,0)" style="animation-play-state:paused"><path d="M0 1565.5534361321797 L2493 1565.5534361321797" style="animation-play-state:paused"/></g>
<rect x="0" y="0" width="2493" height="1581" fill="url(#fg-lg-0.23355233219661753)" style="animation-play-state:paused"/></g></svg>