<?xml version="1.0" encoding="UTF-8" standalone="no"?>
<!-- Created with Inkscape (http://www.inkscape.org/) -->

<svg
   xmlns:dc="http://purl.org/dc/elements/1.1/"
   xmlns:cc="http://creativecommons.org/ns#"
   xmlns:rdf="http://www.w3.org/1999/02/22-rdf-syntax-ns#"
   xmlns:svg="http://www.w3.org/2000/svg"
   xmlns="http://www.w3.org/2000/svg"
   xmlns:sodipodi="http://sodipodi.sourceforge.net/DTD/sodipodi-0.dtd"
   xmlns:inkscape="http://www.inkscape.org/namespaces/inkscape"
   width="673.612mm"
   height="597.34442mm"
   viewBox="0 0 673.612 597.34442"
   version="1.1"
   id="svg1076"
   inkscape:export-filename="/home/urania/git/youchoose.ai/assets/images/concept/faq.png"
   inkscape:export-xdpi="21"
   inkscape:export-ydpi="21"
   inkscape:version="0.92.5 (2060ec1f9f, 2020-04-08)"
   sodipodi:docname="faq.svg">
  <defs
     id="defs1070">
    <symbol
       overflow="visible"
       id="x"
       style="overflow:visible">
      <path
         id="path1621"
         d="m 18.766,-1.125 c -0.96875,0.5 -1.9805,0.875 -3.0312,1.125 -1.043,0.25781 -2.1367,0.39062 -3.2812,0.39062 -3.3984,0 -6.0898,-0.94531 -8.0781,-2.8438 -1.9922,-1.9062 -2.9844,-4.4844 -2.9844,-7.7344 0,-3.2578 0.99219,-5.8359 2.9844,-7.7344 1.9883,-1.9062 4.6797,-2.8594 8.0781,-2.8594 1.1445,0 2.2383,0.13281 3.2812,0.39062 1.0508,0.25 2.0625,0.625 3.0312,1.125 v 4.2188 c -0.98047,-0.65625 -1.9453,-1.1406 -2.8906,-1.4531 -0.94922,-0.3125 -1.9492,-0.46875 -3,-0.46875 -1.875,0 -3.3516,0.60547 -4.4219,1.8125 -1.0742,1.1992 -1.6094,2.8555 -1.6094,4.9688 0,2.1055 0.53516,3.7617 1.6094,4.9688 1.0703,1.1992 2.5469,1.7969 4.4219,1.7969 1.0508,0 2.0508,-0.14844 3,-0.45312 0.94531,-0.3125 1.9102,-0.80078 2.8906,-1.4688 z"
         inkscape:connector-curvature="0" />
    </symbol>
    <symbol
       overflow="visible"
       id="c"
       style="overflow:visible">
      <path
         id="path1624"
         d="m 13.734,-11.141 c -0.4375,-0.19531 -0.87109,-0.34375 -1.2969,-0.4375 -0.41797,-0.10156 -0.83984,-0.15625 -1.2656,-0.15625 -1.2617,0 -2.2305,0.40625 -2.9062,1.2188 -0.67969,0.80469 -1.0156,1.9531 -1.0156,3.4531 v 7.0625 H 2.3591 v -15.312 h 4.8906 v 2.5156 c 0.625,-1 1.3438,-1.7266 2.1562,-2.1875 0.82031,-0.46875 1.8008,-0.70312 2.9375,-0.70312 0.16406,0 0.34375,0.01172 0.53125,0.03125 0.19531,0.01172 0.47656,0.03906 0.84375,0.07813 z"
         inkscape:connector-curvature="0" />
    </symbol>
    <symbol
       overflow="visible"
       id="b"
       style="overflow:visible">
      <path
         id="path1627"
         d="m 17.641,-7.7031 v 1.4062 H 6.188 c 0.125,1.1484 0.53906,2.0078 1.25,2.5781 0.70703,0.57422 1.7031,0.85938 2.9844,0.85938 1.0312,0 2.082,-0.14844 3.1562,-0.45312 1.082,-0.3125 2.1914,-0.77344 3.3281,-1.3906 v 3.7656 c -1.1562,0.4375 -2.3125,0.76562 -3.4688,0.98438 -1.1562,0.22656 -2.3125,0.34375 -3.4688,0.34375 -2.7734,0 -4.9297,-0.70312 -6.4688,-2.1094 -1.5312,-1.4062 -2.2969,-3.3789 -2.2969,-5.9219 0,-2.5 0.75391,-4.4609 2.2656,-5.8906 1.5078,-1.4375 3.582,-2.1562 6.2188,-2.1562 2.4062,0 4.332,0.73047 5.7812,2.1875 1.4453,1.4492 2.1719,3.3828 2.1719,5.7969 z m -5.0312,-1.625 c 0,-0.92578 -0.27344,-1.6719 -0.8125,-2.2344 -0.54297,-0.57031 -1.25,-0.85938 -2.125,-0.85938 -0.94922,0 -1.7188,0.26562 -2.3125,0.79688 -0.5937,0.53126 -0.96484,1.2969 -1.1094,2.2969 z"
         inkscape:connector-curvature="0" />
    </symbol>
    <symbol
       overflow="visible"
       id="a"
       style="overflow:visible">
      <path
         id="path1630"
         d="m 9.2188,-6.8906 c -1.0234,0 -1.793,0.17188 -2.3125,0.51562 -0.51172,0.34375 -0.76562,0.85547 -0.76562,1.5312 0,0.625 0.20703,1.1172 0.625,1.4688 0.41406,0.34375 0.98828,0.51562 1.7188,0.51562 0.92578,0 1.7031,-0.32812 2.3281,-0.98438 0.63281,-0.66406 0.95312,-1.4922 0.95312,-2.4844 v -0.5625 z m 7.4688,-1.8438 V 0 h -4.9219 v -2.2656 c -0.65625,0.92969 -1.3984,1.6055 -2.2188,2.0312 -0.82422,0.41406 -1.8242,0.625 -3,0.625 -1.5859,0 -2.8711,-0.45703 -3.8594,-1.375 -0.99219,-0.92578 -1.4844,-2.1289 -1.4844,-3.6094 0,-1.7891 0.61328,-3.1016 1.8438,-3.9375 1.2383,-0.84375 3.1797,-1.2656 5.8281,-1.2656 h 2.8906 v -0.39062 c 0,-0.76953 -0.30859,-1.332 -0.92188,-1.6875 -0.61719,-0.36328 -1.5703,-0.54688 -2.8594,-0.54688 -1.0547,0 -2.0312,0.10547 -2.9375,0.3125 -0.89844,0.21094 -1.7305,0.52344 -2.5,0.9375 v -3.7344 c 1.0391,-0.25 2.0859,-0.44141 3.1406,-0.57812 1.0625,-0.13281 2.125,-0.20312 3.1875,-0.20312 2.7578,0 4.75,0.54688 5.9688,1.6406 1.2266,1.0859 1.8438,2.8555 1.8438,5.3125 z"
         inkscape:connector-curvature="0" />
    </symbol>
    <symbol
       overflow="visible"
       id="f"
       style="overflow:visible">
      <path
         id="path1633"
         d="m 7.7031,-19.656 v 4.3438 H 12.75 v 3.5 H 7.7031 v 6.5 c 0,0.71094 0.14062,1.1875 0.42188,1.4375 0.28126,0.25 0.83594,0.375 1.6719,0.375 h 2.5156 v 3.5 h -4.1875 c -1.9375,0 -3.3125,-0.39844 -4.125,-1.2031 -0.80469,-0.8125 -1.2031,-2.1797 -1.2031,-4.1094 v -6.5 h -2.4219 v -3.5 h 2.4219 v -4.3438 z"
         inkscape:connector-curvature="0" />
    </symbol>
    <symbol
       overflow="visible"
       id="o"
       style="overflow:visible">
      <path
         id="path1636"
         d="m 12.766,-13.078 v -8.2031 h 4.9219 V -10e-5 H 12.766 v -2.2188 c -0.66797,0.90625 -1.4062,1.5703 -2.2188,1.9844 -0.8126,0.4141 -1.7578,0.625 -2.8281,0.625 -1.8867,0 -3.4336,-0.75 -4.6406,-2.25 -1.2109,-1.5 -1.8125,-3.4258 -1.8125,-5.7812 0,-2.3633 0.60156,-4.2969 1.8125,-5.7969 1.207,-1.5 2.7539,-2.25 4.6406,-2.25 1.0625,0 2,0.21484 2.8125,0.64062 0.82031,0.42969 1.5664,1.0859 2.2344,1.9688 z m -3.2188,9.9219 c 1.0391,0 1.8359,-0.37891 2.3906,-1.1406 0.55078,-0.76953 0.82812,-1.8828 0.82812,-3.3438 0,-1.457 -0.27734,-2.5664 -0.82812,-3.3281 -0.55469,-0.76953 -1.3516,-1.1562 -2.3906,-1.1562 -1.043,0 -1.8398,0.38672 -2.3906,1.1562 -0.55469,0.76172 -0.82812,1.8711 -0.82812,3.3281 0,1.4609 0.27344,2.5742 0.82812,3.3438 0.55078,0.76172 1.3477,1.1406 2.3906,1.1406 z"
         inkscape:connector-curvature="0" />
    </symbol>
    <symbol
       overflow="visible"
       id="n"
       style="overflow:visible">
      <path
         id="path1639"
         d="m 10.5,-3.1562 c 1.0508,0 1.8516,-0.37891 2.4062,-1.1406 0.55078,-0.76953 0.82812,-1.8828 0.82812,-3.3438 0,-1.457 -0.27734,-2.5664 -0.82812,-3.3281 -0.55469,-0.76953 -1.3555,-1.1562 -2.4062,-1.1562 -1.0547,0 -1.8594,0.38672 -2.4219,1.1562 -0.55469,0.77344 -0.82812,1.8828 -0.82812,3.3281 0,1.4492 0.27344,2.5586 0.82812,3.3281 0.5625,0.77344 1.3672,1.1562 2.4219,1.1562 z m -3.25,-9.9219 c 0.67578,-0.88281 1.4219,-1.5391 2.2344,-1.9688 0.82031,-0.42578 1.7656,-0.64062 2.8281,-0.64062 1.8945,0 3.4453,0.75 4.6562,2.25 1.207,1.5 1.8125,3.4336 1.8125,5.7969 0,2.3555 -0.60547,4.2812 -1.8125,5.7812 -1.2109,1.5 -2.7617,2.25 -4.6562,2.25 -1.0625,0 -2.0078,-0.21094 -2.8281,-0.625 C 8.6719,-0.6602 7.9258,-1.32032 7.25,-2.21882 V -2e-5 H 2.3594 v -21.281 H 7.25 Z"
         inkscape:connector-curvature="0" />
    </symbol>
    <symbol
       overflow="visible"
       id="m"
       style="overflow:visible">
      <path
         id="path1642"
         d="m 0.34375,-15.312 h 4.8906 l 4.125,10.391 3.5,-10.391 h 4.8906 l -6.4375,16.766 c -0.64844,1.6953 -1.4023,2.8828 -2.2656,3.5625 -0.86719,0.6875 -2,1.0312 -3.4062,1.0312 H 2.79685 V 2.8289 h 1.5312 c 0.83203,0 1.4375,-0.13672 1.8125,-0.40625 C 6.52336,2.16093 6.82024,1.69218 7.03117,1.01645 L 7.17179,0.59457 Z"
         inkscape:connector-curvature="0" />
    </symbol>
    <symbol
       overflow="visible"
       id="l"
       style="overflow:visible">
      <path
         id="path1645"
         d="m 2.5781,-20.406 h 14.203 v 3.9688 H 7.828 v 3.7969 h 8.4219 v 3.9844 H 7.828 V 3e-4 h -5.25 z"
         inkscape:connector-curvature="0" />
    </symbol>
    <symbol
       overflow="visible"
       id="k"
       style="overflow:visible">
      <path
         id="path1648"
         d="M 17.75,-9.3281 V 0 h -4.9219 v -7.1406 c 0,-1.3203 -0.03125,-2.2344 -0.09375,-2.7344 -0.0625,-0.5 -0.16797,-0.86719 -0.3125,-1.1094 -0.1875,-0.3125 -0.44922,-0.55469 -0.78125,-0.73438 -0.32422,-0.17578 -0.69531,-0.26562 -1.1094,-0.26562 -1.0234,0 -1.8242,0.39844 -2.4062,1.1875 -0.58594,0.78125 -0.875,1.8711 -0.875,3.2656 V -1e-4 H 2.3594 v -15.312 H 7.25 v 2.2344 c 0.73828,-0.88281 1.5195,-1.5391 2.3438,-1.9688 0.83203,-0.42578 1.75,-0.64062 2.75,-0.64062 1.7695,0 3.1133,0.54688 4.0312,1.6406 0.91406,1.0859 1.375,2.6562 1.375,4.7188 z"
         inkscape:connector-curvature="0" />
    </symbol>
    <symbol
       overflow="visible"
       id="e"
       style="overflow:visible">
      <path
         id="path1651"
         d="m 14.719,-14.828 v 3.9844 c -0.65625,-0.45703 -1.3242,-0.79688 -2,-1.0156 -0.66797,-0.21875 -1.3594,-0.32812 -2.0781,-0.32812 -1.3672,0 -2.4336,0.40234 -3.2031,1.2031 -0.76172,0.79297 -1.1406,1.9062 -1.1406,3.3438 0,1.4297 0.37891,2.543 1.1406,3.3438 0.76953,0.79297 1.8359,1.1875 3.2031,1.1875 0.75781,0 1.4844,-0.10938 2.1719,-0.32812 0.6875,-0.22656 1.3203,-0.56641 1.9062,-1.0156 v 4 c -0.76172,0.28125 -1.5391,0.48828 -2.3281,0.625 -0.78125,0.14453 -1.5742,0.21875 -2.375,0.21875 -2.7617,0 -4.9219,-0.70703 -6.4844,-2.125 -1.5547,-1.4141 -2.3281,-3.3828 -2.3281,-5.9062 0,-2.5312 0.77344,-4.5039 2.3281,-5.9219 1.5625,-1.4141 3.7227,-2.125 6.4844,-2.125 0.80078,0 1.5938,0.07422 2.375,0.21875 0.78125,0.13672 1.5547,0.35156 2.3281,0.64062 z"
         inkscape:connector-curvature="0" />
    </symbol>
    <symbol
       overflow="visible"
       id="j"
       style="overflow:visible">
      <path
         id="path1654"
         d="M 2.3594,-15.312 H 7.25 V 0 H 2.3594 Z m 0,-5.9688 H 7.25 v 4 H 2.3594 Z"
         inkscape:connector-curvature="0" />
    </symbol>
    <symbol
       overflow="visible"
       id="i"
       style="overflow:visible">
      <path
         id="path1657"
         d="m 14.312,-14.828 v 3.7188 c -1.043,-0.4375 -2.0547,-0.76562 -3.0312,-0.98438 -0.98047,-0.21875 -1.9023,-0.32812 -2.7656,-0.32812 -0.92969,0 -1.6211,0.11719 -2.0781,0.34375 -0.44922,0.23047 -0.67188,0.58984 -0.67188,1.0781 0,0.38672 0.17188,0.68359 0.51562,0.89062 0.34375,0.21094 0.95703,0.36719 1.8438,0.46875 l 0.85938,0.125 c 2.5078,0.32422 4.1953,0.85156 5.0625,1.5781 0.86328,0.73047 1.2969,1.8711 1.2969,3.4219 0,1.6367 -0.60547,2.8672 -1.8125,3.6875 -1.1992,0.8125 -2.9922,1.2188 -5.375,1.2188 -1.0234,0 -2.0742,-0.078125 -3.1562,-0.23438 -1.0742,-0.15625 -2.1797,-0.39453 -3.3125,-0.71875 v -3.7188 c 0.96875,0.48047 1.9609,0.83984 2.9844,1.0781 1.0312,0.23047 2.0781,0.34375 3.1406,0.34375 0.95703,0 1.6758,-0.12891 2.1562,-0.39062 0.47656,-0.26953 0.71875,-0.66406 0.71875,-1.1875 0,-0.4375 -0.16797,-0.75781 -0.5,-0.96875 -0.33594,-0.21875 -0.99609,-0.38281 -1.9844,-0.5 L 7.34339,-6.01551 c -2.1797,-0.26953 -3.7031,-0.77344 -4.5781,-1.5156 -0.875,-0.73828 -1.3125,-1.8594 -1.3125,-3.3594 0,-1.625 0.55078,-2.8281 1.6562,-3.6094 1.1133,-0.78906 2.8203,-1.1875 5.125,-1.1875 0.89453,0 1.8359,0.07422 2.8281,0.21875 1,0.13672 2.082,0.35156 3.25,0.64062 z"
         inkscape:connector-curvature="0" />
    </symbol>
    <symbol
       overflow="visible"
       id="d"
       style="overflow:visible">
      <path
         id="path1660"
         d="m 9.6406,-12.188 c -1.0859,0 -1.9141,0.39062 -2.4844,1.1719 -0.57422,0.78125 -0.85938,1.9062 -0.85938,3.375 0,1.4688 0.28516,2.5938 0.85938,3.375 0.57031,0.77344 1.3984,1.1562 2.4844,1.1562 1.0625,0 1.875,-0.38281 2.4375,-1.1562 0.57031,-0.78125 0.85938,-1.9062 0.85938,-3.375 0,-1.4688 -0.28906,-2.5938 -0.85938,-3.375 -0.5625,-0.78125 -1.375,-1.1719 -2.4375,-1.1719 z m 0,-3.5 c 2.6328,0 4.6914,0.71484 6.1719,2.1406 1.4766,1.418 2.2188,3.3867 2.2188,5.9062 0,2.5117 -0.74219,4.4805 -2.2188,5.9062 C 14.332,-0.317 12.2734,0.39 9.6406,0.39 6.9922,0.39 4.9258,-0.31703 3.4375,-1.735 1.9453,-3.1608 1.2031,-5.1295 1.2031,-7.6412 c 0,-2.5195 0.74219,-4.4883 2.2344,-5.9062 1.4883,-1.4258 3.5547,-2.1406 6.2031,-2.1406 z"
         inkscape:connector-curvature="0" />
    </symbol>
    <symbol
       overflow="visible"
       id="h"
       style="overflow:visible">
      <path
         id="path1663"
         d="m 20.922,-1.5156 c -1.3125,0.63672 -2.6797,1.1172 -4.0938,1.4375 -1.4062,0.3125 -2.8672,0.46875 -4.375,0.46875 -3.3984,0 -6.0898,-0.94531 -8.0781,-2.8438 -1.9922,-1.9062 -2.9844,-4.4844 -2.9844,-7.7344 0,-3.2891 1.0078,-5.8789 3.0312,-7.7656 2.0312,-1.8828 4.8047,-2.8281 8.3281,-2.8281 1.3516,0 2.6484,0.13281 3.8906,0.39062 1.25,0.25 2.4258,0.625 3.5312,1.125 v 4.2188 c -1.1484,-0.64453 -2.2812,-1.125 -3.4062,-1.4375 -1.125,-0.32031 -2.25,-0.48438 -3.375,-0.48438 -2.1055,0 -3.7266,0.58984 -4.8594,1.7656 -1.125,1.168 -1.6875,2.8398 -1.6875,5.0156 0,2.1562 0.54688,3.8242 1.6406,5 1.0938,1.1797 2.6445,1.7656 4.6562,1.7656 0.53906,0 1.0469,-0.03125 1.5156,-0.09375 0.47656,-0.070313 0.89844,-0.17969 1.2656,-0.32812 v -3.9688 h -3.2031 v -3.5156 h 8.2031 z"
         inkscape:connector-curvature="0" />
    </symbol>
    <symbol
       overflow="visible"
       id="g"
       style="overflow:visible">
      <path
         id="path1666"
         d="M 2.3594,-21.281 H 7.25 V 0 H 2.3594 Z"
         inkscape:connector-curvature="0" />
    </symbol>
    <symbol
       overflow="visible"
       id="w"
       style="overflow:visible">
      <path
         id="path1669"
         d="m 12.766,-2.5938 c -0.66797,0.88672 -1.4062,1.543 -2.2188,1.9688 C 9.7347,-0.20703 8.7894,0 7.7191,0 5.8519,0 4.3129,-0.73438 3.0941,-2.2031 1.8753,-3.6797 1.266,-5.5547 1.266,-7.8281 c 0,-2.2891 0.60938,-4.1641 1.8281,-5.625 1.2188,-1.4688 2.7578,-2.2031 4.625,-2.2031 1.0703,0 2.0156,0.21484 2.8281,0.64062 0.8125,0.41797 1.5508,1.0742 2.2188,1.9688 v -2.2656 h 4.9219 v 13.766 c 0,2.457 -0.77734,4.3359 -2.3281,5.6406 -1.5547,1.3008 -3.8086,1.9531 -6.7656,1.9531 -0.94922,0 -1.8711,-0.074219 -2.7656,-0.21875 C 4.93016,5.68013 4.0317,5.45748 3.1255,5.15669 v -3.8125 c 0.86328,0.48828 1.7031,0.85156 2.5156,1.0938 0.82031,0.23828 1.6484,0.35938 2.4844,0.35938 1.6016,0 2.7734,-0.35156 3.5156,-1.0469 0.75,-0.69922 1.125,-1.7969 1.125,-3.2969 z M 9.5472,-12.125 c -1.0117,0 -1.8047,0.375 -2.375,1.125 -0.5625,0.74219 -0.84375,1.7969 -0.84375,3.1719 0,1.3984 0.26953,2.4609 0.8125,3.1875 0.55078,0.71875 1.3516,1.0781 2.4062,1.0781 1.0195,0 1.8125,-0.36719 2.375,-1.1094 0.5625,-0.75 0.84375,-1.8008 0.84375,-3.1562 0,-1.375 -0.28125,-2.4297 -0.84375,-3.1719 -0.5625,-0.75 -1.3555,-1.125 -2.375,-1.125 z"
         inkscape:connector-curvature="0" />
    </symbol>
    <symbol
       overflow="visible"
       id="v"
       style="overflow:visible">
      <path
         id="path1672"
         d="m 12.422,-21.281 v 3.2188 H 9.7189 c -0.6875,0 -1.1719,0.125 -1.4531,0.375 -0.27344,0.25 -0.40625,0.6875 -0.40625,1.3125 v 1.0625 h 4.1875 v 3.5 H 7.85955 V -2e-4 h -4.8906 v -11.812 h -2.4375 v -3.5 h 2.4375 v -1.0625 c 0,-1.6641 0.46094,-2.8984 1.3906,-3.7031 0.92578,-0.80078 2.3672,-1.2031 4.3281,-1.2031 z"
         inkscape:connector-curvature="0" />
    </symbol>
    <symbol
       overflow="visible"
       id="u"
       style="overflow:visible">
      <path
         id="path1675"
         d="m 16.547,-12.766 c 0.61328,-0.94531 1.3477,-1.6719 2.2031,-2.1719 0.85156,-0.5 1.7891,-0.75 2.8125,-0.75 1.7578,0 3.0977,0.54688 4.0156,1.6406 0.92578,1.0859 1.3906,2.6562 1.3906,4.7188 V -4e-4 h -4.9219 v -7.9844 -0.35938 c 0.0078,-0.13281 0.01563,-0.32031 0.01563,-0.5625 0,-1.082 -0.16406,-1.8633 -0.48438,-2.3438 -0.3125,-0.48828 -0.82422,-0.73438 -1.5312,-0.73438 -0.92969,0 -1.6484,0.38672 -2.1562,1.1562 -0.51172,0.76172 -0.77344,1.8672 -0.78125,3.3125 v 7.5156 h -4.9219 v -7.9844 c 0,-1.6953 -0.14844,-2.7852 -0.4375,-3.2656 -0.29297,-0.48828 -0.8125,-0.73438 -1.5625,-0.73438 -0.9375,0 -1.6641,0.38672 -2.1719,1.1562 -0.51172,0.76172 -0.76562,1.8594 -0.76562,3.2969 v 7.5312 h -4.9219 v -15.312 h 4.9219 v 2.2344 c 0.60156,-0.86328 1.2891,-1.5156 2.0625,-1.9531 0.78125,-0.4375 1.6406,-0.65625 2.5781,-0.65625 1.0625,0 2,0.25781 2.8125,0.76562 0.8125,0.51172 1.4258,1.2305 1.8438,2.1562 z"
         inkscape:connector-curvature="0" />
    </symbol>
    <symbol
       overflow="visible"
       id="t"
       style="overflow:visible">
      <path
         id="path1678"
         d="M 17.75,-9.3281 V 0 h -4.9219 v -7.1094 c 0,-1.3438 -0.03125,-2.2656 -0.09375,-2.7656 -0.0625,-0.5 -0.16797,-0.86719 -0.3125,-1.1094 -0.1875,-0.3125 -0.44922,-0.55469 -0.78125,-0.73438 -0.32422,-0.17578 -0.69531,-0.26562 -1.1094,-0.26562 -1.0234,0 -1.8242,0.39844 -2.4062,1.1875 -0.58594,0.78125 -0.875,1.8711 -0.875,3.2656 V -1e-4 H 2.3594 v -21.281 H 7.25 v 8.2031 c 0.73828,-0.88281 1.5195,-1.5391 2.3438,-1.9688 0.83203,-0.42578 1.75,-0.64062 2.75,-0.64062 1.7695,0 3.1133,0.54688 4.0312,1.6406 0.91406,1.0859 1.375,2.6562 1.375,4.7188 z"
         inkscape:connector-curvature="0" />
    </symbol>
    <symbol
       overflow="visible"
       id="s"
       style="overflow:visible">
      <path
         id="path1681"
         d="m 2.5781,-20.406 h 5.875 l 7.4219,14 v -14 h 4.9844 V 0 h -5.875 L 7.5625,-14 V 0 H 2.5781 Z"
         inkscape:connector-curvature="0" />
    </symbol>
    <symbol
       overflow="visible"
       id="r"
       style="overflow:visible">
      <path
         id="path1684"
         d="m 2.1875,-5.9688 v -9.3438 h 4.9219 v 1.5312 c 0,0.83594 -0.00781,1.875 -0.015625,3.125 -0.011719,1.25 -0.015625,2.0859 -0.015625,2.5 0,1.2422 0.03125,2.1328 0.09375,2.6719 0.070313,0.54297 0.17969,0.93359 0.32812,1.1719 0.20703,0.32422 0.47266,0.57422 0.79688,0.75 0.32031,0.16797 0.69141,0.25 1.1094,0.25 1.0195,0 1.8203,-0.39062 2.4062,-1.1719 0.58203,-0.78125 0.875,-1.8672 0.875,-3.2656 v -7.5625 h 4.8906 V -6e-4 H 12.6875 V -2.2194 C 11.94531,-1.32096 11.1641,-0.6608 10.3437,-0.235 9.51948,0.17906 8.6093,0.39 7.6093,0.39 5.8476,0.39 4.5038,-0.14906 3.5781,-1.235 2.64841,-2.317 2.1875,-3.8952 2.1875,-5.9694 Z"
         inkscape:connector-curvature="0" />
    </symbol>
    <symbol
       overflow="visible"
       id="q"
       style="overflow:visible">
      <path
         id="path1687"
         d="m 2.5781,-20.406 h 8.7344 c 2.5938,0 4.582,0.57812 5.9688,1.7344 1.3945,1.1484 2.0938,2.7891 2.0938,4.9219 0,2.1367 -0.69922,3.7812 -2.0938,4.9375 -1.3867,1.1562 -3.375,1.7344 -5.9688,1.7344 H 7.8281 V 3e-4 h -5.25 z m 5.25,3.8125 v 5.7031 H 10.75 c 1.0195,0 1.8047,-0.25 2.3594,-0.75 0.5625,-0.5 0.84375,-1.2031 0.84375,-2.1094 0,-0.91406 -0.28125,-1.6172 -0.84375,-2.1094 -0.55469,-0.48828 -1.3398,-0.73438 -2.3594,-0.73438 z"
         inkscape:connector-curvature="0" />
    </symbol>
    <symbol
       overflow="visible"
       id="p"
       style="overflow:visible">
      <path
         id="path1690"
         d="M 2.3594,-15.312 H 7.25 v 15.031 c 0,2.0508 -0.49609,3.6172 -1.4844,4.7031 -0.98047,1.082 -2.4062,1.625 -4.2812,1.625 H -0.9375 V 2.8283 h 0.85938 c 0.92578,0 1.5625,-0.21094 1.9062,-0.625 0.35156,-0.41797 0.53125,-1.2461 0.53125,-2.4844 z m 0,-5.9688 H 7.25 v 4 H 2.3594 Z"
         inkscape:connector-curvature="0" />
    </symbol>
    <symbol
       overflow="visible"
       id="u-3"
       style="overflow:visible">
      <path
         id="path1911"
         d="m 18.766,-1.125 c -0.96875,0.5 -1.9805,0.875 -3.0312,1.125 -1.043,0.25781 -2.1367,0.39062 -3.2812,0.39062 -3.3984,0 -6.0898,-0.94531 -8.0781,-2.8438 -1.9922,-1.9062 -2.9844,-4.4844 -2.9844,-7.7344 0,-3.2578 0.99219,-5.8359 2.9844,-7.7344 1.9883,-1.9062 4.6797,-2.8594 8.0781,-2.8594 1.1445,0 2.2383,0.13281 3.2812,0.39062 1.0508,0.25 2.0625,0.625 3.0312,1.125 v 4.2188 c -0.98047,-0.65625 -1.9453,-1.1406 -2.8906,-1.4531 -0.94922,-0.3125 -1.9492,-0.46875 -3,-0.46875 -1.875,0 -3.3516,0.60547 -4.4219,1.8125 -1.0742,1.1992 -1.6094,2.8555 -1.6094,4.9688 0,2.1055 0.53516,3.7617 1.6094,4.9688 1.0703,1.1992 2.5469,1.7969 4.4219,1.7969 1.0508,0 2.0508,-0.14844 3,-0.45312 0.94531,-0.3125 1.9102,-0.80078 2.8906,-1.4688 z"
         inkscape:connector-curvature="0" />
    </symbol>
    <symbol
       overflow="visible"
       id="b-6"
       style="overflow:visible">
      <path
         id="path1914"
         d="m 13.734,-11.141 c -0.4375,-0.19531 -0.87109,-0.34375 -1.2969,-0.4375 -0.41797,-0.10156 -0.83984,-0.15625 -1.2656,-0.15625 -1.2617,0 -2.2305,0.40625 -2.9062,1.2188 -0.67969,0.80469 -1.0156,1.9531 -1.0156,3.4531 v 7.0625 H 2.3591 v -15.312 h 4.8906 v 2.5156 c 0.625,-1 1.3438,-1.7266 2.1562,-2.1875 0.82031,-0.46875 1.8008,-0.70312 2.9375,-0.70312 0.16406,0 0.34375,0.01172 0.53125,0.03125 0.19531,0.01172 0.47656,0.03906 0.84375,0.07813 z"
         inkscape:connector-curvature="0" />
    </symbol>
    <symbol
       overflow="visible"
       id="a-7"
       style="overflow:visible">
      <path
         id="path1917"
         d="m 17.641,-7.7031 v 1.4062 H 6.188 c 0.125,1.1484 0.53906,2.0078 1.25,2.5781 0.70703,0.57422 1.7031,0.85938 2.9844,0.85938 1.0312,0 2.082,-0.14844 3.1562,-0.45312 1.082,-0.3125 2.1914,-0.77344 3.3281,-1.3906 v 3.7656 c -1.1562,0.4375 -2.3125,0.76562 -3.4688,0.98438 -1.1562,0.22656 -2.3125,0.34375 -3.4688,0.34375 -2.7734,0 -4.9297,-0.70312 -6.4688,-2.1094 -1.5312,-1.4062 -2.2969,-3.3789 -2.2969,-5.9219 0,-2.5 0.75391,-4.4609 2.2656,-5.8906 1.5078,-1.4375 3.582,-2.1562 6.2188,-2.1562 2.4062,0 4.332,0.73047 5.7812,2.1875 1.4453,1.4492 2.1719,3.3828 2.1719,5.7969 z m -5.0312,-1.625 c 0,-0.92578 -0.27344,-1.6719 -0.8125,-2.2344 -0.54297,-0.57031 -1.25,-0.85938 -2.125,-0.85938 -0.94922,0 -1.7188,0.26562 -2.3125,0.79688 -0.5937,0.53126 -0.96484,1.2969 -1.1094,2.2969 z"
         inkscape:connector-curvature="0" />
    </symbol>
    <symbol
       overflow="visible"
       id="e-5"
       style="overflow:visible">
      <path
         id="path1920"
         d="m 9.2188,-6.8906 c -1.0234,0 -1.793,0.17188 -2.3125,0.51562 -0.51172,0.34375 -0.76562,0.85547 -0.76562,1.5312 0,0.625 0.20703,1.1172 0.625,1.4688 0.41406,0.34375 0.98828,0.51562 1.7188,0.51562 0.92578,0 1.7031,-0.32812 2.3281,-0.98438 0.63281,-0.66406 0.95312,-1.4922 0.95312,-2.4844 v -0.5625 z m 7.4688,-1.8438 V 0 h -4.9219 v -2.2656 c -0.65625,0.92969 -1.3984,1.6055 -2.2188,2.0312 -0.82422,0.41406 -1.8242,0.625 -3,0.625 -1.5859,0 -2.8711,-0.45703 -3.8594,-1.375 -0.99219,-0.92578 -1.4844,-2.1289 -1.4844,-3.6094 0,-1.7891 0.61328,-3.1016 1.8438,-3.9375 1.2383,-0.84375 3.1797,-1.2656 5.8281,-1.2656 h 2.8906 v -0.39062 c 0,-0.76953 -0.30859,-1.332 -0.92188,-1.6875 -0.61719,-0.36328 -1.5703,-0.54688 -2.8594,-0.54688 -1.0547,0 -2.0312,0.10547 -2.9375,0.3125 -0.89844,0.21094 -1.7305,0.52344 -2.5,0.9375 v -3.7344 c 1.0391,-0.25 2.0859,-0.44141 3.1406,-0.57812 1.0625,-0.13281 2.125,-0.20312 3.1875,-0.20312 2.7578,0 4.75,0.54688 5.9688,1.6406 1.2266,1.0859 1.8438,2.8555 1.8438,5.3125 z"
         inkscape:connector-curvature="0" />
    </symbol>
    <symbol
       overflow="visible"
       id="d-3"
       style="overflow:visible">
      <path
         id="path1923"
         d="m 7.7031,-19.656 v 4.3438 H 12.75 v 3.5 H 7.7031 v 6.5 c 0,0.71094 0.14062,1.1875 0.42188,1.4375 0.28126,0.25 0.83594,0.375 1.6719,0.375 h 2.5156 v 3.5 h -4.1875 c -1.9375,0 -3.3125,-0.39844 -4.125,-1.2031 -0.80469,-0.8125 -1.2031,-2.1797 -1.2031,-4.1094 v -6.5 h -2.4219 v -3.5 h 2.4219 v -4.3438 z"
         inkscape:connector-curvature="0" />
    </symbol>
    <symbol
       overflow="visible"
       id="k-5"
       style="overflow:visible">
      <path
         id="path1926"
         d="m 12.766,-13.078 v -8.2031 h 4.9219 V -10e-5 H 12.766 v -2.2188 c -0.66797,0.90625 -1.4062,1.5703 -2.2188,1.9844 -0.8126,0.4141 -1.7578,0.625 -2.8281,0.625 -1.8867,0 -3.4336,-0.75 -4.6406,-2.25 -1.2109,-1.5 -1.8125,-3.4258 -1.8125,-5.7812 0,-2.3633 0.60156,-4.2969 1.8125,-5.7969 1.207,-1.5 2.7539,-2.25 4.6406,-2.25 1.0625,0 2,0.21484 2.8125,0.64062 0.82031,0.42969 1.5664,1.0859 2.2344,1.9688 z m -3.2188,9.9219 c 1.0391,0 1.8359,-0.37891 2.3906,-1.1406 0.55078,-0.76953 0.82812,-1.8828 0.82812,-3.3438 0,-1.457 -0.27734,-2.5664 -0.82812,-3.3281 -0.55469,-0.76953 -1.3516,-1.1562 -2.3906,-1.1562 -1.043,0 -1.8398,0.38672 -2.3906,1.1562 -0.55469,0.76172 -0.82812,1.8711 -0.82812,3.3281 0,1.4609 0.27344,2.5742 0.82812,3.3438 0.55078,0.76172 1.3477,1.1406 2.3906,1.1406 z"
         inkscape:connector-curvature="0" />
    </symbol>
    <symbol
       overflow="visible"
       id="j-6"
       style="overflow:visible">
      <path
         id="path1929"
         d="m 10.5,-3.1562 c 1.0508,0 1.8516,-0.37891 2.4062,-1.1406 0.55078,-0.76953 0.82812,-1.8828 0.82812,-3.3438 0,-1.457 -0.27734,-2.5664 -0.82812,-3.3281 -0.55469,-0.76953 -1.3555,-1.1562 -2.4062,-1.1562 -1.0547,0 -1.8594,0.38672 -2.4219,1.1562 -0.55469,0.77344 -0.82812,1.8828 -0.82812,3.3281 0,1.4492 0.27344,2.5586 0.82812,3.3281 0.5625,0.77344 1.3672,1.1562 2.4219,1.1562 z m -3.25,-9.9219 c 0.67578,-0.88281 1.4219,-1.5391 2.2344,-1.9688 0.82031,-0.42578 1.7656,-0.64062 2.8281,-0.64062 1.8945,0 3.4453,0.75 4.6562,2.25 1.207,1.5 1.8125,3.4336 1.8125,5.7969 0,2.3555 -0.60547,4.2812 -1.8125,5.7812 -1.2109,1.5 -2.7617,2.25 -4.6562,2.25 -1.0625,0 -2.0078,-0.21094 -2.8281,-0.625 C 8.6719,-0.6602 7.9258,-1.32032 7.25,-2.21882 V -2e-5 H 2.3594 v -21.281 H 7.25 Z"
         inkscape:connector-curvature="0" />
    </symbol>
    <symbol
       overflow="visible"
       id="i-2"
       style="overflow:visible">
      <path
         id="path1932"
         d="m 0.34375,-15.312 h 4.8906 l 4.125,10.391 3.5,-10.391 h 4.8906 l -6.4375,16.766 c -0.64844,1.6953 -1.4023,2.8828 -2.2656,3.5625 -0.86719,0.6875 -2,1.0312 -3.4062,1.0312 H 2.79685 V 2.8289 h 1.5312 c 0.83203,0 1.4375,-0.13672 1.8125,-0.40625 C 6.52336,2.16093 6.82024,1.69218 7.03117,1.01645 L 7.17179,0.59457 Z"
         inkscape:connector-curvature="0" />
    </symbol>
    <symbol
       overflow="visible"
       id="h-9"
       style="overflow:visible">
      <path
         id="path1935"
         d="m 2.5781,-20.406 h 5.25 V 0 h -5.25 z"
         inkscape:connector-curvature="0" />
    </symbol>
    <symbol
       overflow="visible"
       id="g-1"
       style="overflow:visible">
      <path
         id="path1938"
         d="m 14.719,-14.828 v 3.9844 c -0.65625,-0.45703 -1.3242,-0.79688 -2,-1.0156 -0.66797,-0.21875 -1.3594,-0.32812 -2.0781,-0.32812 -1.3672,0 -2.4336,0.40234 -3.2031,1.2031 -0.76172,0.79297 -1.1406,1.9062 -1.1406,3.3438 0,1.4297 0.37891,2.543 1.1406,3.3438 0.76953,0.79297 1.8359,1.1875 3.2031,1.1875 0.75781,0 1.4844,-0.10938 2.1719,-0.32812 0.6875,-0.22656 1.3203,-0.56641 1.9062,-1.0156 v 4 c -0.76172,0.28125 -1.5391,0.48828 -2.3281,0.625 -0.78125,0.14453 -1.5742,0.21875 -2.375,0.21875 -2.7617,0 -4.9219,-0.70703 -6.4844,-2.125 -1.5547,-1.4141 -2.3281,-3.3828 -2.3281,-5.9062 0,-2.5312 0.77344,-4.5039 2.3281,-5.9219 1.5625,-1.4141 3.7227,-2.125 6.4844,-2.125 0.80078,0 1.5938,0.07422 2.375,0.21875 0.78125,0.13672 1.5547,0.35156 2.3281,0.64062 z"
         inkscape:connector-curvature="0" />
    </symbol>
    <symbol
       overflow="visible"
       id="c-2"
       style="overflow:visible">
      <path
         id="path1941"
         d="m 9.6406,-12.188 c -1.0859,0 -1.9141,0.39062 -2.4844,1.1719 -0.57422,0.78125 -0.85938,1.9062 -0.85938,3.375 0,1.4688 0.28516,2.5938 0.85938,3.375 0.57031,0.77344 1.3984,1.1562 2.4844,1.1562 1.0625,0 1.875,-0.38281 2.4375,-1.1562 0.57031,-0.78125 0.85938,-1.9062 0.85938,-3.375 0,-1.4688 -0.28906,-2.5938 -0.85938,-3.375 -0.5625,-0.78125 -1.375,-1.1719 -2.4375,-1.1719 z m 0,-3.5 c 2.6328,0 4.6914,0.71484 6.1719,2.1406 1.4766,1.418 2.2188,3.3867 2.2188,5.9062 0,2.5117 -0.74219,4.4805 -2.2188,5.9062 C 14.332,-0.317 12.2734,0.39 9.6406,0.39 6.9922,0.39 4.9258,-0.31703 3.4375,-1.735 1.9453,-3.1608 1.2031,-5.1295 1.2031,-7.6412 c 0,-2.5195 0.74219,-4.4883 2.2344,-5.9062 1.4883,-1.4258 3.5547,-2.1406 6.2031,-2.1406 z"
         inkscape:connector-curvature="0" />
    </symbol>
    <symbol
       overflow="visible"
       id="f-7"
       style="overflow:visible">
      <path
         id="path1944"
         d="M 17.75,-9.3281 V 0 h -4.9219 v -7.1406 c 0,-1.3203 -0.03125,-2.2344 -0.09375,-2.7344 -0.0625,-0.5 -0.16797,-0.86719 -0.3125,-1.1094 -0.1875,-0.3125 -0.44922,-0.55469 -0.78125,-0.73438 -0.32422,-0.17578 -0.69531,-0.26562 -1.1094,-0.26562 -1.0234,0 -1.8242,0.39844 -2.4062,1.1875 -0.58594,0.78125 -0.875,1.8711 -0.875,3.2656 V -1e-4 H 2.3594 v -15.312 H 7.25 v 2.2344 c 0.73828,-0.88281 1.5195,-1.5391 2.3438,-1.9688 0.83203,-0.42578 1.75,-0.64062 2.75,-0.64062 1.7695,0 3.1133,0.54688 4.0312,1.6406 0.91406,1.0859 1.375,2.6562 1.375,4.7188 z"
         inkscape:connector-curvature="0" />
    </symbol>
    <symbol
       overflow="visible"
       id="t-0"
       style="overflow:visible">
      <path
         id="path1947"
         d="m 2.5781,-20.406 h 6.6875 l 4.6562,10.922 4.6719,-10.922 h 6.6875 V 0 H 20.2968 V -14.938 L 15.5937,-3.922 H 12.2656 L 7.5625,-14.938 V 0 H 2.5781 Z"
         inkscape:connector-curvature="0" />
    </symbol>
    <symbol
       overflow="visible"
       id="s-9"
       style="overflow:visible">
      <path
         id="path1950"
         d="M 2.3594,-21.281 H 7.25 v 11.594 l 5.625,-5.625 h 5.6875 L 11.0937,-8.2808 19.1562,4e-4 H 13.2187 L 7.2499,-6.3902 V 4e-4 H 2.3593 Z"
         inkscape:connector-curvature="0" />
    </symbol>
    <symbol
       overflow="visible"
       id="r-3"
       style="overflow:visible">
      <path
         id="path1953"
         d="m 12.422,-21.281 v 3.2188 H 9.7189 c -0.6875,0 -1.1719,0.125 -1.4531,0.375 -0.27344,0.25 -0.40625,0.6875 -0.40625,1.3125 v 1.0625 h 4.1875 v 3.5 H 7.85955 V -2e-4 h -4.8906 v -11.812 h -2.4375 v -3.5 h 2.4375 v -1.0625 c 0,-1.6641 0.46094,-2.8984 1.3906,-3.7031 0.92578,-0.80078 2.3672,-1.2031 4.3281,-1.2031 z"
         inkscape:connector-curvature="0" />
    </symbol>
    <symbol
       overflow="visible"
       id="q-6"
       style="overflow:visible">
      <path
         id="path1956"
         d="m 16.547,-12.766 c 0.61328,-0.94531 1.3477,-1.6719 2.2031,-2.1719 0.85156,-0.5 1.7891,-0.75 2.8125,-0.75 1.7578,0 3.0977,0.54688 4.0156,1.6406 0.92578,1.0859 1.3906,2.6562 1.3906,4.7188 V -4e-4 h -4.9219 v -7.9844 -0.35938 c 0.0078,-0.13281 0.01563,-0.32031 0.01563,-0.5625 0,-1.082 -0.16406,-1.8633 -0.48438,-2.3438 -0.3125,-0.48828 -0.82422,-0.73438 -1.5312,-0.73438 -0.92969,0 -1.6484,0.38672 -2.1562,1.1562 -0.51172,0.76172 -0.77344,1.8672 -0.78125,3.3125 v 7.5156 h -4.9219 v -7.9844 c 0,-1.6953 -0.14844,-2.7852 -0.4375,-3.2656 -0.29297,-0.48828 -0.8125,-0.73438 -1.5625,-0.73438 -0.9375,0 -1.6641,0.38672 -2.1719,1.1562 -0.51172,0.76172 -0.76562,1.8594 -0.76562,3.2969 v 7.5312 h -4.9219 v -15.312 h 4.9219 v 2.2344 c 0.60156,-0.86328 1.2891,-1.5156 2.0625,-1.9531 0.78125,-0.4375 1.6406,-0.65625 2.5781,-0.65625 1.0625,0 2,0.25781 2.8125,0.76562 0.8125,0.51172 1.4258,1.2305 1.8438,2.1562 z"
         inkscape:connector-curvature="0" />
    </symbol>
    <symbol
       overflow="visible"
       id="p-0"
       style="overflow:visible">
      <path
         id="path1959"
         d="M 17.75,-9.3281 V 0 h -4.9219 v -7.1094 c 0,-1.3438 -0.03125,-2.2656 -0.09375,-2.7656 -0.0625,-0.5 -0.16797,-0.86719 -0.3125,-1.1094 -0.1875,-0.3125 -0.44922,-0.55469 -0.78125,-0.73438 -0.32422,-0.17578 -0.69531,-0.26562 -1.1094,-0.26562 -1.0234,0 -1.8242,0.39844 -2.4062,1.1875 -0.58594,0.78125 -0.875,1.8711 -0.875,3.2656 V -1e-4 H 2.3594 v -21.281 H 7.25 v 8.2031 c 0.73828,-0.88281 1.5195,-1.5391 2.3438,-1.9688 0.83203,-0.42578 1.75,-0.64062 2.75,-0.64062 1.7695,0 3.1133,0.54688 4.0312,1.6406 0.91406,1.0859 1.375,2.6562 1.375,4.7188 z"
         inkscape:connector-curvature="0" />
    </symbol>
    <symbol
       overflow="visible"
       id="o-6"
       style="overflow:visible">
      <path
         id="path1962"
         d="m 2.5781,-20.406 h 5.875 l 7.4219,14 v -14 h 4.9844 V 0 h -5.875 L 7.5625,-14 V 0 H 2.5781 Z"
         inkscape:connector-curvature="0" />
    </symbol>
    <symbol
       overflow="visible"
       id="n-2"
       style="overflow:visible">
      <path
         id="path1965"
         d="m 2.1875,-5.9688 v -9.3438 h 4.9219 v 1.5312 c 0,0.83594 -0.00781,1.875 -0.015625,3.125 -0.011719,1.25 -0.015625,2.0859 -0.015625,2.5 0,1.2422 0.03125,2.1328 0.09375,2.6719 0.070313,0.54297 0.17969,0.93359 0.32812,1.1719 0.20703,0.32422 0.47266,0.57422 0.79688,0.75 0.32031,0.16797 0.69141,0.25 1.1094,0.25 1.0195,0 1.8203,-0.39062 2.4062,-1.1719 0.58203,-0.78125 0.875,-1.8672 0.875,-3.2656 v -7.5625 h 4.8906 V -6e-4 H 12.6875 V -2.2194 C 11.94531,-1.32096 11.1641,-0.6608 10.3437,-0.235 9.51948,0.17906 8.6093,0.39 7.6093,0.39 5.8476,0.39 4.5038,-0.14906 3.5781,-1.235 2.64841,-2.317 2.1875,-3.8952 2.1875,-5.9694 Z"
         inkscape:connector-curvature="0" />
    </symbol>
    <symbol
       overflow="visible"
       id="m-6"
       style="overflow:visible">
      <path
         id="path1968"
         d="m 2.5781,-20.406 h 8.7344 c 2.5938,0 4.582,0.57812 5.9688,1.7344 1.3945,1.1484 2.0938,2.7891 2.0938,4.9219 0,2.1367 -0.69922,3.7812 -2.0938,4.9375 -1.3867,1.1562 -3.375,1.7344 -5.9688,1.7344 H 7.8281 V 3e-4 h -5.25 z m 5.25,3.8125 v 5.7031 H 10.75 c 1.0195,0 1.8047,-0.25 2.3594,-0.75 0.5625,-0.5 0.84375,-1.2031 0.84375,-2.1094 0,-0.91406 -0.28125,-1.6172 -0.84375,-2.1094 -0.55469,-0.48828 -1.3398,-0.73438 -2.3594,-0.73438 z"
         inkscape:connector-curvature="0" />
    </symbol>
    <symbol
       overflow="visible"
       id="l-1"
       style="overflow:visible">
      <path
         id="path1971"
         d="M 2.3594,-15.312 H 7.25 v 15.031 c 0,2.0508 -0.49609,3.6172 -1.4844,4.7031 -0.98047,1.082 -2.4062,1.625 -4.2812,1.625 H -0.9375 V 2.8283 h 0.85938 c 0.92578,0 1.5625,-0.21094 1.9062,-0.625 0.35156,-0.41797 0.53125,-1.2461 0.53125,-2.4844 z m 0,-5.9688 H 7.25 v 4 H 2.3594 Z"
         inkscape:connector-curvature="0" />
    </symbol>
  </defs>
  <sodipodi:namedview
     id="base"
     pagecolor="#ffffff"
     bordercolor="#666666"
     borderopacity="1.0"
     inkscape:pageopacity="0.0"
     inkscape:pageshadow="2"
     inkscape:zoom="0.24748737"
     inkscape:cx="1623.9504"
     inkscape:cy="1426.5756"
     inkscape:document-units="mm"
     inkscape:current-layer="layer1"
     showgrid="false"
     showguides="false"
     inkscape:window-width="1920"
     inkscape:window-height="1016"
     inkscape:window-x="0"
     inkscape:window-y="27"
     inkscape:window-maximized="1" />
  <metadata
     id="metadata1073">
    <rdf:RDF>
      <cc:Work
         rdf:about="">
        <dc:format>image/svg+xml</dc:format>
        <dc:type
           rdf:resource="http://purl.org/dc/dcmitype/StillImage" />
        <dc:title></dc:title>
      </cc:Work>
    </rdf:RDF>
  </metadata>
  <g
     inkscape:label="Layer 1"
     inkscape:groupmode="layer"
     id="layer1"
     transform="translate(528.75411,88.917528)">
    <line
       x1="143.95512"
       x2="-18.825418"
       y1="324.02585"
       y2="161.24532"
       class="ld ld-speed-dash"
       style="display:block;stroke:#da9d00;stroke-width:1.78751338;stroke-linecap:round"
       id="line12" />
    <line
       x1="-159.32091"
       x2="-424.26318"
       y1="463.44336"
       y2="198.50108"
       class="ld ld-speed-dash"
       style="display:block;stroke:#e33180;stroke-width:7.3310461;stroke-linecap:round"
       id="line16" />
    <line
       x1="111.08765"
       x2="-248.8244"
       y1="322.39325"
       y2="-37.518826"
       class="ld ld-speed-dash"
       style="display:block;stroke:#e33180;stroke-width:7.59379911;stroke-linecap:round"
       id="line26" />
    <line
       x1="-9.6497526"
       x2="-428.06265"
       y1="417.47284"
       y2="-0.94012761"
       class="ld ld-speed-dash"
       style="display:block;stroke:#e33180;stroke-width:4.59246016;stroke-linecap:round"
       id="line30" />
    <line
       x1="5.1303926"
       x2="-238.37746"
       y1="268.259"
       y2="24.751118"
       class="ld ld-speed-dash"
       style="display:block;stroke:#e33180;stroke-width:2.78640008;stroke-linecap:round"
       id="line50" />
    <line
       x1="-27.129801"
       x2="-214.60605"
       y1="319.49237"
       y2="132.01608"
       class="ld ld-speed-dash"
       style="display:block;stroke:#e33180;stroke-width:7.02402449;stroke-linecap:round"
       id="line62" />
    <line
       x1="100.11843"
       x2="-83.531898"
       y1="380.40189"
       y2="196.75154"
       class="ld ld-speed-dash"
       style="display:block;stroke:#da9d00;stroke-width:5.18428469;stroke-linecap:round"
       id="line70" />
    <line
       x1="-201.54907"
       x2="-525.82202"
       y1="379.52026"
       y2="55.247364"
       class="ld ld-speed-dash"
       style="display:block;stroke:#da9d00;stroke-width:5.80554438;stroke-linecap:round"
       id="line72" />
    <line
       x1="-5.9594207"
       x2="-326.75851"
       y1="379.68237"
       y2="58.883228"
       class="ld ld-speed-dash"
       style="display:block;stroke:#e33180;stroke-width:2.26222539;stroke-linecap:round"
       id="line82" />
    <line
       x1="-111.45261"
       x2="-385.11264"
       y1="431.6113"
       y2="157.95123"
       class="ld ld-speed-dash"
       style="display:block;stroke:#da9d00;stroke-width:2.73575878;stroke-linecap:round"
       id="line84" />
    <line
       x1="-9.9938135"
       x2="-451.15213"
       y1="488.48343"
       y2="47.325138"
       class="ld ld-speed-dash"
       style="display:block;stroke:#da9d00;stroke-width:7.05275536;stroke-linecap:round"
       id="line136" />
    <line
       x1="17.956564"
       x2="-197.70103"
       y1="462.56381"
       y2="246.90614"
       class="ld ld-speed-dash"
       style="display:block;stroke:#da9d00;stroke-width:0.11602239;stroke-linecap:round"
       id="line154" />
    <line
       x1="17.965414"
       x2="-180.80069"
       y1="172.26915"
       y2="-26.497021"
       class="ld ld-speed-dash"
       style="display:block;stroke:#e33180;stroke-width:3.01792383;stroke-linecap:round"
       id="line160" />
    <line
       x1="-213.63239"
       x2="-404.83902"
       y1="104.73359"
       y2="-86.473099"
       class="ld ld-speed-dash"
       style="display:block;stroke:#e33180;stroke-width:4.8399744;stroke-linecap:round"
       id="line162" />
    <line
       x1="-158.91362"
       x2="-482.02191"
       y1="506.38629"
       y2="183.278"
       class="ld ld-speed-dash"
       style="display:block;stroke:#da9d00;stroke-width:4.04038334;stroke-linecap:round"
       id="line188" />
    <g
       id="g2867"
       transform="translate(-414.24372,136.70574)">
      <path
         inkscape:connector-curvature="0"
         id="path2850"
         d="m 246.95704,46.301183 2.50051,32.504621 27.86137,-21.237165 z"
         style="fill:#f5f5f5;fill-opacity:1;stroke:none;stroke-width:0.26458332px;stroke-linecap:butt;stroke-linejoin:miter;stroke-opacity:1" />
      <rect
         ry="55.191162"
         y="-79.201622"
         x="192.2662"
         height="139.24742"
         width="138.44562"
         id="rect2797-0-2"
         style="fill:#f5f5f5;fill-opacity:1;stroke:none;stroke-width:3.96227551;stroke-linecap:round;stroke-linejoin:round;stroke-miterlimit:4;stroke-dasharray:none;stroke-opacity:1" />
      <ellipse
         ry="11.802761"
         rx="10.585854"
         cy="74.372025"
         cx="188.42113"
         id="path2173-2"
         style="fill:#e33180;fill-opacity:1;stroke:none;stroke-width:0.68677449;stroke-linecap:round;stroke-linejoin:round;stroke-miterlimit:4;stroke-dasharray:none;stroke-opacity:1" />
      <ellipse
         ry="15.960499"
         rx="14.176626"
         cy="42.573399"
         cx="152.46283"
         id="path2173"
         style="fill:#e33180;fill-opacity:1;stroke:none;stroke-width:0.92420673;stroke-linecap:round;stroke-linejoin:round;stroke-miterlimit:4;stroke-dasharray:none;stroke-opacity:1" />
      <path
         style="fill:#e33180;fill-opacity:1;stroke-width:0.34792778"
         id="path1695-9"
         d="m 236.98621,87.379416 c 17.92524,-0.390073 35.8505,-10.326506 45.20278,-24.93947 51.43765,-0.778774 51.43765,-35.265965 51.43765,-68.5835249 0,-37.0195181 0,-69.1680461 -68.58353,-69.1680461 -68.38869,0 -68.38869,31.953687 -68.38869,69.1680461 0,33.5124039 0,68.1938369 52.41186,68.5835249 0.19435,1.168827 0,3.506412 -0.58442,5.065479 -1.94895,5.455502 -6.62421,10.326495 -12.85977,13.444272 -1.36453,0.778774 -2.1433,2.337673 -1.75324,3.896445 0.19436,1.558886 1.55753,2.533333 3.1164,2.533333 z m 28.05725,-155.676817 c 61.76414,0 61.76414,26.108154 61.76414,62.3486601 0,33.1223769 0,61.7641409 -46.56665,61.7641409 -1.16882,0 -2.33766,0.584414 -2.92203,1.75324 -5.84555,9.93647 -16.17169,17.73075 -27.86137,21.237165 2.33766,-2.727687 4.09233,-5.649649 5.26101,-8.767438 0.77878,-2.143303 2.14331,-8.183258 -0.19434,-11.885205 -0.97448,-1.558889 -2.72768,-2.337663 -4.48096,-2.337663 -46.56667,0 -46.56667,-28.641409 -46.56667,-61.7641353 -0.19706,-36.2401607 -0.19706,-62.3486597 61.56584,-62.3486597 z"
         inkscape:connector-curvature="0" />
      <rect
         ry="22.324165"
         y="155.14874"
         x="148.22633"
         height="77.856903"
         width="41.648369"
         id="rect2138"
         style="fill:#e33180;fill-opacity:1;stroke:none;stroke-width:1.15494454;stroke-linecap:round;stroke-linejoin:round;stroke-miterlimit:4;stroke-dasharray:none;stroke-opacity:1" />
      <path
         style="stroke-width:0.35277778"
         id="path1695"
         d="m 231.68459,85.119418 c 18.17511,-0.3955 36.35023,-10.47045 45.83289,-25.28711 52.15467,-0.78963 52.15467,-35.757563 52.15467,-69.5395609 0,-37.5355551 0,-70.1322211 -69.53956,-70.1322211 -69.342,0 -69.342,32.399111 -69.342,70.1322211 0,33.9795579 0,69.1444409 53.14245,69.5395609 0.19706,1.18512 0,3.55529 -0.59256,5.13609 -1.97612,5.53155 -6.71654,10.47044 -13.03902,13.63168 -1.38356,0.78963 -2.17318,2.37025 -1.77768,3.95076 0.19706,1.58062 1.57924,2.56865 3.15983,2.56865 z m 28.44836,-157.846892 c 62.62511,0 62.62511,26.472091 62.62511,63.2177761 0,33.5840929 0,62.6251159 -47.21578,62.6251159 -1.18512,0 -2.37024,0.59256 -2.96277,1.77768 -5.92702,10.07498 -16.39711,17.97791 -28.24974,21.5332 2.37025,-2.76571 4.14937,-5.7284 5.33435,-8.88965 0.78963,-2.17318 2.17319,-8.29733 -0.19706,-12.05088 -0.98806,-1.58062 -2.7657,-2.37025 -4.54342,-2.37025 -47.21578,0 -47.21578,-29.040663 -47.21578,-62.6251099 -0.19981,-36.7453321 -0.19981,-63.2177761 62.42403,-63.2177761 z"
         inkscape:connector-curvature="0" />
      <path
         style="fill:#e33180;fill-opacity:1;stroke-width:0.35277778"
         id="path1697"
         d="m 264.31552,33.625955 c -1.77768,1.58062 -3.95076,2.37024 -6.32248,2.37024 -2.37024,0 -4.54343,-0.78962 -6.51933,-2.37024 -1.77769,-1.58062 -2.76571,-3.75391 -2.76571,-6.71654 0,-2.56865 0.98806,-4.74169 2.76571,-6.51933 1.77768,-1.77769 3.95075,-2.56865 6.51933,-2.56865 2.56857,0 4.74169,0.78962 6.51933,2.56865 1.77769,1.77768 2.56865,3.95076 2.56865,6.51933 0,2.76571 -0.98806,4.93889 -2.76571,6.71654 z"
         inkscape:connector-curvature="0" />
      <path
         style="fill:#e33180;fill-opacity:1;stroke-width:0.35277778"
         id="path1699"
         d="m 271.62508,-6.4778252 c -1.38356,1.18512 -2.56865,2.37024 -3.35827,3.35827 -0.78962,0.98806 -1.38356,1.77768 -1.77768,2.56863996 -0.3955,0.78963 -0.78962,1.58062004 -0.98806,2.37025004 -0.19706,0.78962 -0.59256,2.17318 -0.98806,4.14937 -0.78962,4.1493702 -3.16121,6.3224802 -7.3092,6.3224802 -2.17319,0 -3.95076,-0.78962 -5.33436,-1.97612 -1.38356,-1.3835602 -2.17318,-3.3582702 -2.17318,-6.1238702 0,-3.35827004 0.59256,-6.32248 1.58062,-8.88965 0.98806,-2.56864 2.37024,-4.74168 4.14937,-6.5193298 1.77769,-1.97612 4.14938,-4.14937 7.112,-6.71653 2.56865,-2.17319 4.54343,-3.95076 5.53156,-5.1361 1.18512,-1.18512 2.17318,-2.37024 2.96277,-3.95075 0.78962,-1.38356 1.18512,-2.96277 1.18512,-4.54343 0,-3.16121 -1.18512,-5.92702 -3.55529,-8.29733 -2.37025,-2.17318 -5.53156,-3.35827 -9.28512,-3.35827 -4.54342,0 -7.70466,1.18512 -9.87777,3.35827 -2.17311,2.17314 -3.95076,5.53155 -5.33436,9.87778 -1.38356,4.54342 -3.95075,6.91515 -7.90151,6.91515 -2.17318,0 -4.14937,-0.78963 -5.72841,-2.37025 -1.58062,-1.58062 -2.37024,-3.35827 -2.37024,-5.13609 0,-3.75391 1.18512,-7.70467 3.75391,-11.65542 2.56878,-3.95076 6.12387,-7.30921 10.86591,-9.87778 4.74203,-2.56858 10.27324,-3.95076 16.59431,-3.95076 5.92702,0 11.06276,1.18512 15.60618,3.16121 4.54343,2.17318 7.90152,5.13609 10.47045,8.88964 2.37024,3.75391 3.7539,7.70467 3.7539,12.24809 0,3.35827 -0.78962,6.51934 -2.17318,9.08827 -1.38356,2.56892 -3.1612,4.74168 -4.93889,6.71653 -1.97749,1.77352 -5.53296,4.93466 -10.47185,9.4780798 z"
         inkscape:connector-curvature="0" />
      <g
         transform="matrix(0.35277777,0,0,0.35277777,70.028752,46.216913)"
         id="g2048">
        <rect
           ry="49.623745"
           y="224.68794"
           x="221.66245"
           height="99.24749"
           width="118.94547"
           id="rect2797-0"
           style="fill:#f5f5f5;fill-opacity:1;stroke:none;stroke-width:3.10059667;stroke-linecap:round;stroke-linejoin:round;stroke-miterlimit:4;stroke-dasharray:none;stroke-opacity:1" />
        <rect
           ry="37.880722"
           y="151.76175"
           x="203.02896"
           height="75.761444"
           width="157.5838"
           id="rect2797"
           style="fill:#f5f5f5;fill-opacity:1;stroke:none;stroke-width:3.11811018;stroke-linecap:round;stroke-linejoin:round;stroke-miterlimit:4;stroke-dasharray:none;stroke-opacity:1" />
        <path
           sodipodi:nodetypes="csssccsscscccccccccsccsccsssssssssssssssssssssscssssss"
           inkscape:connector-curvature="0"
           d="M 336,140 H 224 c -18.48,0 -33.602,15.121 -33.602,33.602 v 33.602 c 0,14.559 9.5195,26.879 22.398,31.359 l 0.004,226.24 c 0,36.961 30.238,67.199 67.199,67.199 36.961,0 67.199,-30.238 67.199,-67.199 v -226.24 c 12.879,-4.4805 22.398,-16.801 22.398,-31.359 v -33.602 c 0.004,-18.477 -15.117,-33.598 -33.598,-33.598 z m -11.199,168 h -89.602 v -67.199 h 89.602 z M 280,509.6 c -24.641,0 -44.801,-20.16 -44.801,-44.801 v -134.4 h 89.602 v 134.4 c 0,24.645 -20.16,44.805 -44.801,44.805 z m 67.199,-302.4 c 0,6.1602 -5.0391,11.199 -11.199,11.199 H 224 c -6.1602,0 -11.199,-5.0391 -11.199,-11.199 v -33.602 c 0,-6.1602 5.0391,-11.199 11.199,-11.199 h 112 c 6.1602,0 11.199,5.0391 11.199,11.199 z M 336,39.2 c -21.84,0 -39.199,17.359 -39.199,39.199 0,21.84 17.359,39.199 39.199,39.199 21.84,0 39.199,-17.359 39.199,-39.199 C 375.199,56.559 357.84,39.2 336,39.2 Z m 0,56 c -9.5195,0 -16.801,-7.2812 -16.801,-16.801 0,-9.5195 7.2812,-16.801 16.801,-16.801 9.5198,0 16.801,7.2812 16.801,16.801 0,9.5234 -7.2812,16.801 -16.801,16.801 z M 234.2,-61.999002 c -28,0 -50.398,22.398 -50.398,50.398 0,28 22.398,50.398 50.398,50.398 28,0 50.398,-22.398 50.398,-50.398 0.004,-28 -22.398,-50.398 -50.398,-50.398 z m 0,78.398 c -15.68,0 -28,-12.32 -28,-28 0,-15.68 12.32,-28 28,-28 15.68,0 28,12.32 28,28 0,15.68 -12.32,28 -28,28 z"
           id="path1976" />
      </g>
      <path
         style="fill:#000000;fill-opacity:1;stroke-width:0.35277778"
         id="path1697-8"
         d="m 257.96554,32.038455 c -1.77768,1.58062 -3.95076,2.37024 -6.32248,2.37024 -2.37024,0 -4.54343,-0.78962 -6.51933,-2.37024 -1.77769,-1.58062 -2.76571,-3.75391 -2.76571,-6.71654 0,-2.56865 0.98806,-4.74169 2.76571,-6.51933 1.77768,-1.77769 3.95075,-2.56865 6.51933,-2.56865 2.56857,0 4.74169,0.78962 6.51933,2.56865 1.77769,1.77768 2.56865,3.95076 2.56865,6.51933 0,2.76571 -0.98806,4.93889 -2.76571,6.71654 z"
         inkscape:connector-curvature="0" />
      <path
         style="fill:#000000;fill-opacity:1;stroke-width:0.35277778"
         id="path1699-7"
         d="m 265.2751,-8.0653252 c -1.38356,1.1851214 -2.56865,2.3702404 -3.35827,3.3582714 -0.78962,0.98806 -1.38356,1.77768 -1.77768,2.568638 -0.3955,0.789629 -0.78962,1.58061897 -0.98806,2.37024891 -0.19706,0.78961999 -0.59256,2.17317989 -0.98806,4.14937009 -0.78962,4.14937 -3.16121,6.3224798 -7.3092,6.3224798 -2.17319,0 -3.95076,-0.7896198 -5.33436,-1.9761198 -1.38356,-1.38356 -2.17318,-3.35827 -2.17318,-6.1238701 0,-3.35826993 0.59256,-6.3224779 1.58062,-8.8896479 0.98806,-2.5686381 2.37024,-4.7416782 4.14937,-6.5193292 1.77769,-1.97612 4.14938,-4.149368 7.112,-6.71653 2.56865,-2.173189 4.54343,-3.950758 5.53156,-5.136099 1.18512,-1.185119 2.17318,-2.370241 2.96277,-3.950751 0.78962,-1.383559 1.18512,-2.962769 1.18512,-4.543429 0,-3.16121 -1.18512,-5.92702 -3.55529,-8.29733 -2.37025,-2.17318 -5.53156,-3.35827 -9.28512,-3.35827 -4.54342,0 -7.70466,1.18512 -9.87777,3.35827 -2.17311,2.17314 -3.95076,5.53155 -5.33436,9.87778 -1.38356,4.54342 -3.95075,6.915151 -7.90151,6.915151 -2.17318,0 -4.14937,-0.789631 -5.72841,-2.370252 -1.58062,-1.580618 -2.37024,-3.358269 -2.37024,-5.136089 0,-3.75391 1.18512,-7.70467 3.75391,-11.65542 2.56878,-3.95076 6.12387,-7.30921 10.86591,-9.87778 4.74203,-2.56858 10.27324,-3.95076 16.59431,-3.95076 5.92702,0 11.06276,1.18512 15.60618,3.16121 4.54343,2.17318 7.90152,5.13609 10.47045,8.88964 2.37024,3.75391 3.7539,7.70467 3.7539,12.24809 0,3.358271 -0.78962,6.51934 -2.17318,9.08827 -1.38356,2.568922 -3.1612,4.74168 -4.93889,6.71653 -1.97749,1.77352 -5.53296,4.934662 -10.47185,9.4780798 z"
         inkscape:connector-curvature="0" />
    </g>
  </g>
</svg>
