<?xml version="1.0" encoding="UTF-8" standalone="no"?>
<!-- Created with Inkscape (http://www.inkscape.org/) -->

<svg
   xmlns:dc="http://purl.org/dc/elements/1.1/"
   xmlns:cc="http://creativecommons.org/ns#"
   xmlns:rdf="http://www.w3.org/1999/02/22-rdf-syntax-ns#"
   xmlns:svg="http://www.w3.org/2000/svg"
   xmlns="http://www.w3.org/2000/svg"
   xmlns:sodipodi="http://sodipodi.sourceforge.net/DTD/sodipodi-0.dtd"
   xmlns:inkscape="http://www.inkscape.org/namespaces/inkscape"
   width="269.53888mm"
   height="284.18283mm"
   viewBox="0 0 269.53887 284.18283"
   version="1.1"
   id="svg888"
   inkscape:version="0.92.5 (2060ec1f9f, 2020-04-08)"
   sodipodi:docname="ui1.svg">
  <defs
     id="defs882" />
  <sodipodi:namedview
     id="base"
     pagecolor="#ffffff"
     bordercolor="#666666"
     borderopacity="1.0"
     inkscape:pageopacity="0.0"
     inkscape:pageshadow="2"
     inkscape:zoom="0.52787982"
     inkscape:cx="393.52614"
     inkscape:cy="516.43827"
     inkscape:document-units="mm"
     inkscape:current-layer="layer1"
     showgrid="false"
     showguides="true"
     inkscape:guide-bbox="true"
     inkscape:window-width="2560"
     inkscape:window-height="1403"
     inkscape:window-x="1920"
     inkscape:window-y="0"
     inkscape:window-maximized="1" />
  <metadata
     id="metadata885">
    <rdf:RDF>
      <cc:Work
         rdf:about="">
        <dc:format>image/svg+xml</dc:format>
        <dc:type
           rdf:resource="http://purl.org/dc/dcmitype/StillImage" />
        <dc:title />
      </cc:Work>
    </rdf:RDF>
  </metadata>
  <g
     inkscape:label="Layer 1"
     inkscape:groupmode="layer"
     id="layer1"
     transform="translate(316.71421,35.599287)">
    <line
       id="line162-3-6"
       style="display:block;stroke:#e33180;stroke-width:2.16653252;stroke-linecap:round;stroke-miterlimit:4;stroke-dasharray:none"
       class="ld ld-speed-dash"
       y2="6.0496035"
       y1="136.25455"
       x2="-209.39735"
       x1="-79.192474" />
    <line
       id="line162-3"
       style="display:block;stroke:#e33180;stroke-width:2.16653228;stroke-linecap:round;stroke-miterlimit:4;stroke-dasharray:none"
       class="ld ld-speed-dash"
       y2="108.29827"
       y1="238.5032"
       x2="-301.62164"
       x1="-171.41673" />
    <line
       id="line4"
       style="display:block;stroke:#572b8f;stroke-width:1.60000002;stroke-linecap:round;stroke-miterlimit:4;stroke-dasharray:none"
       class="ld ld-speed-dash"
       y2="47.627853"
       y1="200.4856"
       x2="-287.23526"
       x1="-134.37753" />
    <line
       id="line18"
       style="display:block;stroke:#e33180;stroke-width:0.89999998;stroke-linecap:round;stroke-miterlimit:4;stroke-dasharray:none"
       class="ld ld-speed-dash"
       y2="2.4169278"
       y1="221.55302"
       x2="-274.89053"
       x1="-55.754448" />
    <line
       id="line56"
       style="display:block;stroke:#e33180;stroke-width:1.89999998;stroke-linecap:round;stroke-miterlimit:4;stroke-dasharray:none"
       class="ld ld-speed-dash"
       y2="4.1933541"
       y1="236.44559"
       x2="-311.37399"
       x1="-79.121765" />
    <line
       id="line72"
       style="display:block;stroke:#572b8f;stroke-width:3.20000005;stroke-linecap:round;stroke-miterlimit:4;stroke-dasharray:none"
       class="ld ld-speed-dash"
       y2="37.616783"
       y1="242.85646"
       x2="-315.09805"
       x1="-109.85838" />
    <line
       id="line104"
       style="display:block;stroke:#572b8f;stroke-width:1.39999998;stroke-linecap:round;stroke-miterlimit:4;stroke-dasharray:none"
       class="ld ld-speed-dash"
       y2="82.96106"
       y1="221.57727"
       x2="-305.63165"
       x1="-167.01541" />
    <line
       id="line116"
       style="display:block;stroke:#572b8f;stroke-width:3.20000005;stroke-linecap:round;stroke-miterlimit:4;stroke-dasharray:none"
       class="ld ld-speed-dash"
       y2="11.384531"
       y1="139.49312"
       x2="-219.29767"
       x1="-91.189079" />
    <line
       id="line158"
       style="display:block;stroke:#572b8f;stroke-width:3.20000005;stroke-linecap:round;stroke-miterlimit:4;stroke-dasharray:none"
       class="ld ld-speed-dash"
       y2="1.2623897"
       y1="220.0787"
       x2="-298.76855"
       x1="-79.952248" />
    <line
       id="line160"
       style="display:block;stroke:#572b8f;stroke-width:1.79999995;stroke-linecap:round;stroke-miterlimit:4;stroke-dasharray:none"
       class="ld ld-speed-dash"
       y2="-34.690197"
       y1="148.13307"
       x2="-230.90767"
       x1="-48.084412" />
    <line
       id="line162"
       style="display:block;stroke:#e33180;stroke-width:3.20000005;stroke-linecap:round;stroke-miterlimit:4;stroke-dasharray:none"
       class="ld ld-speed-dash"
       y2="54.652802"
       y1="246.96739"
       x2="-315.07397"
       x1="-122.75942" />
    <path
       style="fill:#f5f5f5;fill-opacity:1;stroke:#000000;stroke-width:0.21489897px;stroke-linecap:butt;stroke-linejoin:miter;stroke-opacity:1"
       d="m -210.72462,47.062927 -22.7975,14.65554 -8.95616,36.231752 22.39041,49.665991 56.17956,4.88518 12.62005,9.36326 16.28393,-8.14197 -9.77036,-26.46138 8.14197,-45.187921 -17.09813,-29.718174 -34.19626,-9.770358 -21.57621,4.47808"
       id="path2709"
       inkscape:connector-curvature="0" />
    <path
       style="fill:#1a030e;fill-opacity:1;stroke-width:0.31799054"
       inkscape:connector-curvature="0"
       id="path61"
       d="m -248.67007,92.102269 c 1.60362,-30.62886 26.88993,-55.381244 57.69621,-56.271619 33.47805,-0.890628 60.90155,25.999548 60.90155,59.476969 v 2.67061 c 0,0 5.16353,19.232071 12.10844,29.915911 6.76716,10.68512 -12.10844,11.75325 -12.10844,11.75325 0,8.1e-4 0.35651,27.42414 -29.38169,31.69857 v 20.83475 l -70.69565,-14.42374 c 0,0 1.60238,-24.57463 0,-32.76575 -0.71177,-3.7402 -4.09541,-10.32833 -6.58846,-13.71207 -8.01431,-10.68511 -12.64394,-24.39591 -11.93196,-39.176441 z m 58.94273,50.929371 c 8.19207,0 15.84865,-1.95888 22.61582,-5.69903 l 22.6158,16.73934 -8.90374,-27.6019 c 7.12236,-8.36951 11.57422,-19.23207 11.57422,-31.163071 0,-26.35475 -21.36865,-47.902104 -47.9021,-47.902104 -26.53345,0 -47.90209,21.368645 -47.90209,47.902104 0,26.354741 21.54639,47.724021 47.90209,47.724021 z" />
    <path
       style="fill:#e33180;fill-opacity:1;stroke-width:0.23344891"
       inkscape:connector-curvature="0"
       id="path67"
       d="m -160.48004,107.10725 c -1.93963,0 -3.58554,1.27029 -4.15562,3.02199 h -12.89619 l -3.62313,-3.60024 v -1.16726 h 6.95328 c 0.58726,1.72169 2.21685,2.96645 4.13648,2.96645 2.41106,0 4.3718,-1.96061 4.3718,-4.37181 0,-2.41106 -1.9606,-4.371801 -4.3718,-4.371801 -1.91774,0 -3.5482,1.242931 -4.13648,2.964581 l -26.65754,6.6e-4 v -2.957341 h 19.61789 c -0.16871,-1.47091 -0.59091,-2.86442 -1.22197,-4.13648 l -18.39507,6.7e-4 v -2.95733 h 16.35239 c -2.29163,-2.46931 -5.56542,-4.01684 -9.19929,-4.01684 h -14.30341 c -6.93134,0 -12.55162,5.61912 -12.55162,12.551621 v 5.65833 h 35.57996 l 6.28677,6.24943 h 14.09822 c 0.60367,1.69341 2.21685,2.90993 4.11547,2.90993 2.41105,0 4.3718,-1.9606 4.3718,-4.37179 0,-2.41121 -1.9606,-4.37344 -4.3725,-4.37344 z m -9.58425,-4.71194 c 0.85993,0 1.55937,0.69943 1.55937,1.55937 0,0.85994 -0.69944,1.55938 -1.55937,1.55938 -0.85993,0 -1.55937,-0.69944 -1.55937,-1.55938 -0.002,-0.85994 0.69944,-1.55937 1.55937,-1.55937 z m 9.58425,10.64481 c -0.85993,0 -1.55937,-0.69944 -1.55937,-1.55937 0,-0.85994 0.69944,-1.55937 1.55937,-1.55937 0.85993,0 1.55936,0.69943 1.55936,1.55937 0,0.85993 -0.69943,1.55937 -1.55936,1.55937 z m -50.98058,-38.311305 c 0,-5.855365 4.74648,-10.60185 10.60185,-10.60185 v 2.957332 h 7.34173 c 1.1873,1.139883 2.10741,2.551595 2.66459,4.136482 h -10.00445 v 2.957325 h 10.58807 c 0.009,0.183296 0.0145,0.3675 0.0145,0.55171 0,1.257521 -0.22067,2.464054 -0.62192,3.584615 h -9.97995 v 2.95733 h 8.34043 c -1.94145,2.47222 -4.95448,4.06154 -8.34042,4.06154 -5.85816,-0.003 -10.60465,-4.74929 -10.60465,-10.604649 z"
       sodipodi:nodetypes="ccccccsssccccccccsssccccssccssscssssssccccccccsccccccc" />
  </g>
</svg>
