<?xml version="1.0" encoding="UTF-8" standalone="no"?>
<svg
   xmlns:dc="http://purl.org/dc/elements/1.1/"
   xmlns:cc="http://creativecommons.org/ns#"
   xmlns:rdf="http://www.w3.org/1999/02/22-rdf-syntax-ns#"
   xmlns:svg="http://www.w3.org/2000/svg"
   xmlns="http://www.w3.org/2000/svg"
   xmlns:sodipodi="http://sodipodi.sourceforge.net/DTD/sodipodi-0.dtd"
   xmlns:inkscape="http://www.inkscape.org/namespaces/inkscape"
   version="1.1"
   x="0px"
   y="0px"
   viewBox="0 0 62 62"
   xml:space="preserve"
   id="svg972"
   sodipodi:docname="betatesting.svg"
   width="62"
   height="62"
   inkscape:version="0.92.5 (2060ec1f9f, 2020-04-08)"><metadata
     id="metadata978"><rdf:RDF><cc:Work
         rdf:about=""><dc:format>image/svg+xml</dc:format><dc:type
           rdf:resource="http://purl.org/dc/dcmitype/StillImage" /></cc:Work></rdf:RDF></metadata><defs
     id="defs976" /><sodipodi:namedview
     pagecolor="#ffffff"
     bordercolor="#666666"
     borderopacity="1"
     objecttolerance="10"
     gridtolerance="10"
     guidetolerance="10"
     inkscape:pageopacity="0"
     inkscape:pageshadow="2"
     inkscape:window-width="1848"
     inkscape:window-height="1009"
     id="namedview974"
     showgrid="false"
     inkscape:zoom="10.2"
     inkscape:cx="13.009804"
     inkscape:cy="31.295711"
     inkscape:window-x="0"
     inkscape:window-y="34"
     inkscape:window-maximized="1"
     inkscape:current-layer="svg972" /><g
     id="g966"
     transform="translate(-1,-1)"
     style="fill:#e33180;fill-opacity:1"><path
       d="M 62,55 H 59 V 23 H 57 V 55 H 7 V 22 h 5 v 1 H 9 c -0.553,0 -1,0.447 -1,1 v 29 c 0,0.553 0.447,1 1,1 h 46 c 0.553,0 1,-0.447 1,-1 V 24 H 54 V 52 H 10 V 25 h 2 v 6 c 0,0.553 0.447,1 1,1 h 14 c 0.553,0 1,-0.447 1,-1 v -6 h 9 v -2 h -9 v -1 h 9 v -2 h -9 v -3 c 0,-0.553 -0.447,-1 -1,-1 H 13 c -0.553,0 -1,0.447 -1,1 v 3 H 6 C 5.447,20 5,20.447 5,21 V 55 H 2 c -0.553,0 -1,0.447 -1,1 v 4 c 0,1.654 1.346,3 3,3 h 56 c 1.654,0 3,-1.346 3,-3 v -4 c 0,-0.553 -0.447,-1 -1,-1 z M 14,18 H 26 V 30 H 14 Z m 47,42 c 0,0.552 -0.448,1 -1,1 H 4 C 3.448,61 3,60.552 3,60 v -3 h 58 z"
       id="path950"
       inkscape:connector-curvature="0"
       style="fill:#e33180;fill-opacity:1" /><path
       d="m 38,16 h 1.466 c 0.176,0.559 0.4,1.1 0.673,1.619 l -1.038,1.038 c -0.391,0.391 -0.391,1.023 0,1.414 l 2.828,2.828 c 0.391,0.391 1.023,0.391 1.414,0 l 1.038,-1.038 c 0.52,0.272 1.061,0.497 1.619,0.673 V 24 c 0,0.553 0.447,1 1,1 h 4 c 0.553,0 1,-0.447 1,-1 v -1.466 c 0.559,-0.176 1.1,-0.4 1.619,-0.673 l 1.038,1.038 c 0.391,0.391 1.023,0.391 1.414,0 l 2.828,-2.828 c 0.391,-0.391 0.391,-1.023 0,-1.414 L 57.861,17.619 C 58.133,17.099 58.358,16.558 58.534,16 H 60 c 0.553,0 1,-0.447 1,-1 v -4 c 0,-0.553 -0.447,-1 -1,-1 H 58.534 C 58.358,9.441 58.134,8.9 57.861,8.381 l 1.038,-1.038 c 0.391,-0.391 0.391,-1.023 0,-1.414 L 56.071,3.101 C 55.68,2.71 55.048,2.71 54.657,3.101 L 53.619,4.139 C 53.1,3.866 52.559,3.642 52,3.466 V 2 C 52,1.447 51.553,1 51,1 h -4 c -0.553,0 -1,0.447 -1,1 v 1.466 c -0.559,0.176 -1.1,0.4 -1.619,0.673 L 43.343,3.101 C 42.952,2.71 42.32,2.71 41.929,3.101 l -2.828,2.828 c -0.391,0.391 -0.391,1.023 0,1.414 l 1.038,1.038 C 39.866,8.9 39.642,9.441 39.466,10 H 38 c -0.553,0 -1,0.447 -1,1 v 4 c 0,0.553 0.447,1 1,1 z m 1,-4 h 1.23 c 0.467,0 0.871,-0.323 0.975,-0.778 0.2,-0.877 0.546,-1.709 1.027,-2.474 0.249,-0.396 0.191,-0.91 -0.139,-1.24 l -0.872,-0.872 1.414,-1.414 0.872,0.872 c 0.331,0.332 0.846,0.388 1.24,0.139 C 45.512,5.752 46.344,5.406 47.221,5.206 47.677,5.102 48,4.697 48,4.23 V 3 h 2 v 1.23 c 0,0.467 0.323,0.871 0.778,0.975 0.877,0.2 1.709,0.546 2.474,1.027 0.395,0.249 0.909,0.193 1.24,-0.139 l 0.872,-0.872 1.414,1.414 -0.872,0.872 c -0.33,0.33 -0.388,0.845 -0.139,1.24 0.481,0.765 0.827,1.597 1.027,2.474 C 56.898,11.677 57.303,12 57.77,12 H 59 v 2 h -1.23 c -0.467,0 -0.871,0.323 -0.975,0.778 -0.2,0.877 -0.546,1.709 -1.027,2.474 -0.249,0.396 -0.191,0.91 0.139,1.24 l 0.872,0.872 -1.414,1.414 -0.872,-0.872 c -0.331,-0.331 -0.846,-0.388 -1.24,-0.139 -0.765,0.481 -1.597,0.827 -2.474,1.027 C 50.323,20.898 50,21.303 50,21.77 V 23 h -2 v -1.23 c 0,-0.467 -0.323,-0.871 -0.778,-0.975 -0.877,-0.2 -1.709,-0.546 -2.474,-1.027 -0.395,-0.249 -0.909,-0.192 -1.24,0.139 l -0.872,0.872 -1.414,-1.414 0.872,-0.872 c 0.33,-0.33 0.388,-0.845 0.139,-1.24 C 41.752,16.488 41.406,15.656 41.206,14.779 41.102,14.323 40.697,14 40.23,14 H 39 Z"
       id="path952"
       inkscape:connector-curvature="0"
       style="fill:#e33180;fill-opacity:1" /><path
       d="m 49,20 c 3.859,0 7,-3.141 7,-7 0,-3.859 -3.141,-7 -7,-7 -3.859,0 -7,3.141 -7,7 0,3.859 3.141,7 7,7 z M 49,8 c 2.757,0 5,2.243 5,5 0,2.757 -2.243,5 -5,5 -2.757,0 -5,-2.243 -5,-5 0,-2.757 2.243,-5 5,-5 z"
       id="path954"
       inkscape:connector-curvature="0"
       style="fill:#e33180;fill-opacity:1" /><path
       d="M 53,35 V 33 H 51.92 C 51.75,31.817 51.284,30.731 50.598,29.816 L 51.364,29.05 49.95,27.636 49.184,28.402 C 48.269,27.716 47.183,27.25 46,27.08 V 26 h -2 v 1.08 c -1.183,0.17 -2.269,0.636 -3.184,1.322 l -0.766,-0.766 -1.414,1.414 0.766,0.766 C 38.716,30.731 38.25,31.817 38.08,33 H 37 v 2 h 1.08 c 0.17,1.183 0.636,2.269 1.322,3.184 l -0.766,0.766 1.414,1.414 0.766,-0.766 c 0.915,0.686 2.001,1.151 3.184,1.322 V 42 h 2 v -1.08 c 1.183,-0.17 2.269,-0.636 3.184,-1.322 l 0.766,0.766 1.414,-1.414 -0.766,-0.766 C 51.284,37.269 51.749,36.183 51.92,35 Z m -3,-1 c 0,2.757 -2.243,5 -5,5 -2.757,0 -5,-2.243 -5,-5 0,-2.757 2.243,-5 5,-5 2.757,0 5,2.243 5,5 z"
       id="path956"
       inkscape:connector-curvature="0"
       style="fill:#e33180;fill-opacity:1" /><path
       d="m 45,30 c -2.206,0 -4,1.794 -4,4 0,2.206 1.794,4 4,4 2.206,0 4,-1.794 4,-4 0,-2.206 -1.794,-4 -4,-4 z m 0,6 c -1.103,0 -2,-0.897 -2,-2 0,-1.103 0.897,-2 2,-2 1.103,0 2,0.897 2,2 0,1.103 -0.897,2 -2,2 z"
       id="path958"
       inkscape:connector-curvature="0"
       style="fill:#e33180;fill-opacity:1" /><path
       d="M 27,34 H 13 c -0.553,0 -1,0.447 -1,1 v 14 c 0,0.553 0.447,1 1,1 h 14 c 0.553,0 1,-0.447 1,-1 V 35 c 0,-0.553 -0.447,-1 -1,-1 z M 26,48 H 14 V 36 h 12 z"
       id="path960"
       inkscape:connector-curvature="0"
       style="fill:#e33180;fill-opacity:1" /><path
       d="M 18.925,26.233 16.8,23.4 l -1.6,1.2 3,4 c 0.19,0.253 0.486,0.4 0.8,0.4 0.014,0 0.028,0 0.042,-0.001 0.33,-0.014 0.631,-0.189 0.806,-0.469 l 5,-8 -1.695,-1.061 z"
       id="path962"
       inkscape:connector-curvature="0"
       style="fill:#e33180;fill-opacity:1" /><polygon
       points="21.414,42 24.707,38.707 23.293,37.293 20,40.586 16.707,37.293 15.293,38.707 18.586,42 15.293,45.293 16.707,46.707 20,43.414 23.293,46.707 24.707,45.293 "
       id="polygon964"
       style="fill:#e33180;fill-opacity:1" /></g></svg>