<?xml version="1.0" encoding="UTF-8" standalone="no"?>
<svg
   xmlns:dc="http://purl.org/dc/elements/1.1/"
   xmlns:cc="http://creativecommons.org/ns#"
   xmlns:rdf="http://www.w3.org/1999/02/22-rdf-syntax-ns#"
   xmlns:svg="http://www.w3.org/2000/svg"
   xmlns="http://www.w3.org/2000/svg"
   xmlns:sodipodi="http://sodipodi.sourceforge.net/DTD/sodipodi-0.dtd"
   xmlns:inkscape="http://www.inkscape.org/namespaces/inkscape"
   data-name="Layer 3"
   viewBox="0 0 62 61.999828"
   x="0px"
   y="0px"
   version="1.1"
   id="svg878"
   sodipodi:docname="launch.svg"
   width="62"
   height="61.999828"
   inkscape:version="0.92.5 (2060ec1f9f, 2020-04-08)">
  <metadata
     id="metadata884">
    <rdf:RDF>
      <cc:Work
         rdf:about="">
        <dc:format>image/svg+xml</dc:format>
        <dc:type
           rdf:resource="http://purl.org/dc/dcmitype/StillImage" />
      </cc:Work>
    </rdf:RDF>
  </metadata>
  <defs
     id="defs882" />
  <sodipodi:namedview
     pagecolor="#ffffff"
     bordercolor="#666666"
     borderopacity="1"
     objecttolerance="10"
     gridtolerance="10"
     guidetolerance="10"
     inkscape:pageopacity="0"
     inkscape:pageshadow="2"
     inkscape:window-width="1848"
     inkscape:window-height="1009"
     id="namedview880"
     showgrid="false"
     inkscape:zoom="10.2"
     inkscape:cx="29.538271"
     inkscape:cy="33.927812"
     inkscape:window-x="0"
     inkscape:window-y="34"
     inkscape:window-maximized="1"
     inkscape:current-layer="svg878" />
  <path
     d="m 59,51.999829 h -1 v -31 a 5.006,5.006 0 0 0 -5,-5 H 40.926 a 23.947,23.947 0 0 0 -5.857,-14.1530002 5.407,5.407 0 0 0 -8.139,0 23.952,23.952 0 0 0 -5.856,14.1530002 H 9 a 5.006,5.006 0 0 0 -5,5 v 31 H 3 a 3,3 0 0 0 -3,3 v 2 a 5.006,5.006 0 0 0 5,5 h 52 a 5.006,5.006 0 0 0 5,-5 v -2 a 3,3 0 0 0 -3,-3 z m -3,-31 v 31 h -2 v -29 a 3,3 0 0 0 -3,-3 h -6.586 l -2,-2 H 53 a 3,3 0 0 1 3,3 z m -41.816,31 a 3,3 0 0 1 2.816,-2 2.025,2.025 0 0 1 0.283,0.029 l 0.115,0.016 a 1,1 0 0 0 1,-0.5 3,3 0 0 1 2.602,-1.545 2.962,2.962 0 0 1 1.928,0.726 1,1 0 0 0 1.506,-0.251 2.9,2.9 0 0 1 3.433,-1.329 0.993,0.993 0 0 0 1,-0.253 3.067,3.067 0 0 1 4.266,0 0.993,0.993 0 0 0 1,0.253 2.9,2.9 0 0 1 3.433,1.329 1,1 0 0 0 1.506,0.251 2.962,2.962 0 0 1 1.928,-0.726 3,3 0 0 1 2.6,1.542 1,1 0 0 0 1,0.5 l 0.115,-0.016 a 2.025,2.025 0 0 1 0.285,-0.026 3,3 0 0 1 2.816,2 z m 23.4,2 -2,2 h -9.17 l -2,-2 z m 12.316,-2 a 5.009,5.009 0 0 0 -4.9,-4 h -0.021 a 4.992,4.992 0 0 0 -3.979,-2 4.938,4.938 0 0 0 -2.348,0.6 4.929,4.929 0 0 0 -3.652,-1.6 4.516,4.516 0 0 0 -0.885,0.091 5.105,5.105 0 0 0 -6.23,0 4.516,4.516 0 0 0 -0.885,-0.091 4.929,4.929 0 0 0 -3.652,1.6 4.938,4.938 0 0 0 -2.348,-0.6 4.992,4.992 0 0 0 -3.979,2 H 17 a 5.009,5.009 0 0 0 -4.9,4 H 10 v -29 a 1,1 0 0 1 1,-1 h 6 v 6.5 l -0.8,0.6 a 8.034,8.034 0 0 0 -3.2,6.4 v 5.5 a 1,1 0 0 0 1.6,0.8 l 7.733,-5.8 H 25 v 5 a 1,1 0 0 0 1,1 h 10 a 1,1 0 0 0 1,-1 v -5 h 2.667 l 7.733,5.8 a 1,1 0 0 0 0.6,0.2 1,1 0 0 0 1,-1 v -5.5 a 8.034,8.034 0 0 0 -3.2,-6.4 l -0.8,-0.6 v -6.5 h 6 a 1,1 0 0 1 1,1 v 29 z m -8.9,-24 3.6,2.7 a 6.029,6.029 0 0 1 2.4,4.8 v 3.5 l -6,-4.5 z m 2,-1 -2,-1.5 v -6.086 l 2,2 z m -16,9 h 8 v 4 h -8 z m -4,-2 v -2 h 16 v 2 z m -5.6,-3.3 3.6,-2.7 v 6.5 l -6,4.5 v -3.5 a 6.029,6.029 0 0 1 2.4,-4.8 z m 3.6,-5.2 -2,1.5 v -5.586 l 2,-2 z M 28.435,3.1628288 a 3.409,3.409 0 0 1 5.129,0 c 0.416,0.475 0.806,0.969 1.177,1.475 l -0.632,0.421 a 5.692,5.692 0 0 1 -6.218,0 l -0.632,-0.422 c 0.37,-0.505 0.76,-0.999 1.176,-1.474 z m -2.286,3.137 0.632,0.422 a 7.608,7.608 0 0 0 8.438,0 l 0.631,-0.422 A 21.957,21.957 0 0 1 39,17.629829 v 12.37 H 23 v -12.37 A 21.972,21.972 0 0 1 26.149,6.2998288 Z M 6,20.999829 a 3,3 0 0 1 3,-3 h 10.586 l -2,2 H 11 a 3,3 0 0 0 -3,3 v 29 H 6 Z m 54,36 a 3,3 0 0 1 -3,3 H 5 a 3,3 0 0 1 -3,-3 v -2 a 1,1 0 0 1 1,-1 h 18.586 l 3.707,3.707 a 1,1 0 0 0 0.707,0.293 h 10 a 1,1 0 0 0 0.707,-0.293 l 3.707,-3.707 H 59 a 1,1 0 0 1 1,1 z"
     id="path868"
     inkscape:connector-curvature="0"
     style="fill:#e33180;fill-opacity:0.94117647" />
  <path
     d="m 31,21.999829 a 6,6 0 1 0 -6,-6 6.006,6.006 0 0 0 6,6 z m 0,-10 a 4,4 0 1 1 -4,4 4,4 0 0 1 4,-4 z"
     id="path870"
     inkscape:connector-curvature="0"
     style="fill:#e33180;fill-opacity:0.94117647" />
  <circle
     cx="31"
     cy="15.999829"
     r="2"
     id="circle872"
     style="fill:#e33180;fill-opacity:0.94117647" />
</svg>
